<svg width="472" height="472" viewBox="0 0 472 472" fill="none" xmlns="http://www.w3.org/2000/svg">
<g clip-path="url(#clip0_9_203)">
<path d="M381.139 49.9205C386.158 54.0586 392.761 59.6933 397.603 64.0075C384.133 51.4173 353.934 56.6999 310.617 82.7607C310.617 82.7607 310.529 82.7607 310.529 82.6726C346.714 52.2977 371.102 41.9966 381.139 49.9205Z" fill="#161616"/>
<path d="M381.139 49.9205C386.158 54.0586 392.761 59.6934 397.603 64.0075C384.133 51.4173 353.934 56.6999 310.617 82.7607C310.617 82.7607 310.529 82.7607 310.529 82.6727C346.714 52.2977 371.102 41.9967 381.139 49.9205ZM380.611 49.4803C370.574 41.6445 346.274 52.2097 310.088 83.0248C353.846 56.7879 384.309 51.5053 397.868 64.2716C392.761 59.7814 385.894 53.7945 380.611 49.4803Z" fill="#161616"/>
<path d="M352.261 30.6391L354.022 31.6075C358.6 34.4249 364.675 38.1228 369.165 41.1162C361.77 35.9217 341.696 49.3923 310.529 82.6727C310.529 82.6727 310.441 82.6727 310.441 82.5846C322.062 65.152 346.45 28.7021 352.261 30.6391Z" fill="#161616"/>
<path d="M352.261 30.639L354.022 31.6075C358.6 34.4249 364.675 38.1227 369.165 41.1162C361.77 35.9216 341.696 49.3923 310.529 82.6726C310.529 82.6726 310.441 82.6726 310.441 82.5846C322.062 65.152 346.45 28.7021 352.261 30.639ZM351.645 30.2869C348.387 28.438 334.388 45.8705 310.088 83.1128C341.696 49.6564 362.122 36.2738 369.694 41.5564C365.027 38.5629 358.776 34.5129 354.022 31.6075L351.645 30.2869Z" fill="#161616"/>
<path d="M322.062 16.288L331.131 20.0739L339.759 24.0358C339.583 23.8597 329.81 43.3173 310.265 82.5846H310.176C322.943 40.0597 326.553 17.9608 322.062 16.288Z" fill="#161616"/>
<path d="M322.062 16.288L331.131 20.0739L339.759 24.0358C339.583 23.8597 329.81 43.3173 310.264 82.5846H310.176C322.943 40.0597 326.552 17.9608 322.062 16.288ZM321.534 16.0239C326.2 17.6967 322.767 40.1477 310.088 83.1128C329.898 43.5814 340.023 24.1238 340.375 24.2999L331.219 19.9858L321.534 16.0239Z" fill="#161616"/>
<path d="M289.838 6.2511C295.121 7.65979 302.165 9.5087 307.359 11.0935L308.944 11.6217C316.868 14.175 317.924 38.0347 310.176 82.5846H310.088C310.793 34.9532 302.957 9.24457 289.838 6.2511Z" fill="#161616"/>
<path d="M289.838 6.2511C295.121 7.65979 302.165 9.5087 307.359 11.0935L308.944 11.6217C316.868 14.175 317.924 38.0347 310.176 82.5846H310.088C310.793 34.9532 302.957 9.24457 289.838 6.2511ZM289.222 6.07501C295.121 8.45218 310.705 14.8793 310.176 83.1129C318.188 38.2108 317.396 14.263 309.56 11.7978L307.359 11.0935C301.9 9.5087 294.681 7.39566 289.222 6.07501Z" fill="#161616"/>
<path d="M254.357 0.704346C260.696 1.40869 269.06 2.37717 275.399 3.34564C292.392 6.16303 305.422 32.9282 310.088 82.4966H310C297.586 30.1988 276.984 2.55325 254.357 0.704346Z" fill="#161616"/>
<path d="M254.357 0.704346C260.696 1.40869 269.06 2.37717 275.399 3.34564C292.392 6.16303 305.422 32.9282 310.088 82.4965H310C297.586 30.1988 276.984 2.55325 254.357 0.704346ZM253.653 0.704346C276.544 2.46521 297.41 30.3749 310.088 83.1129C305.686 33.1923 293.008 6.33912 276.016 3.43369C269.5 2.46521 260.872 1.32065 254.357 0.704346H253.653Z" fill="#161616"/>
<path d="M214.121 0.968476L224.246 0.26413L238.069 0C268.62 3.08151 289.486 26.9412 309.912 82.4966H309.824C282.443 25.6206 247.049 -2.20108 214.121 0.968476Z" fill="#161616"/>
<path d="M214.121 0.968476L224.246 0.26413L238.069 0C268.62 3.08151 289.486 26.9412 309.912 82.4966H309.824C282.443 25.6206 247.049 -2.20108 214.121 0.968476ZM213.241 1.05652C246.521 -2.28913 282.355 25.7086 310.088 83.1129C291.951 28.438 265.627 0.26413 238.773 0C234.371 0.0880433 228.56 0.0880433 224.246 0.26413L213.241 1.05652Z" fill="#161616"/>
<path d="M168.163 9.86082C174.942 8.09996 183.922 5.72279 190.79 4.3141L195.72 3.43366C232.963 -3.08154 275.399 23.8597 309.736 82.4965H309.648C264.658 21.5706 211.304 -3.16958 168.163 9.86082Z" fill="#161616"/>
<path d="M168.163 9.86083C174.942 8.09996 183.922 5.7228 190.79 4.3141L195.72 3.43367C232.963 -3.08153 275.399 23.8597 309.736 82.4965H309.648C264.658 21.5706 211.304 -3.16958 168.163 9.86083ZM167.282 10.125C210.688 -3.25762 264.658 21.6586 310.088 83.0248C276.016 24.0358 233.755 -3.16957 196.513 3.16954L190.79 4.22606C183.746 5.98693 174.326 8.18801 167.282 10.125Z" fill="#161616"/>
<path d="M117.362 31.9597C126.254 27.2054 138.228 21.3065 147.472 17.2565C194.312 -1.84893 256.206 20.338 309.648 82.5846H309.56C243.352 19.2815 168.427 2.20106 117.362 31.9597Z" fill="#161616"/>
<path d="M117.362 31.9597C126.254 27.2054 138.228 21.3065 147.473 17.2565C194.312 -1.84891 256.206 20.338 309.648 82.5846H309.56C243.352 19.2815 168.427 2.20108 117.362 31.9597ZM116.393 32.488C167.634 2.37717 243.352 19.3695 310.088 83.1129C256.998 20.6021 195.28 -2.02499 148.441 16.8163C127.311 26.1489 126.958 26.3249 116.393 32.488Z" fill="#161616"/>
<path d="M66.7368 71.4031L75.189 63.127C81.0879 58.0205 89.0118 51.2412 95.2628 46.4869C148.001 7.21957 233.315 18.9293 309.56 82.5846C309.56 82.5846 309.56 82.5846 309.472 82.6727C219.052 19.8978 119.123 17.5206 66.7368 71.4031Z" fill="#161616"/>
<path d="M66.7368 71.4031L75.189 63.127C81.0879 58.0205 89.0118 51.2412 95.2628 46.4868C148.001 7.21954 233.315 18.9293 309.56 82.5846C309.56 82.5846 309.56 82.5846 309.472 82.6726C219.052 19.8978 119.123 17.5206 66.7368 71.4031ZM65.8564 72.2835C118.242 17.7847 219.052 19.8978 310.088 83.1128C234.195 19.0173 149.057 6.86737 96.3194 45.6945C89.8922 50.801 81.44 57.5803 75.277 63.039L65.8564 72.2835Z" fill="#161616"/>
<path d="M26.5891 126.958C30.8152 119.475 36.626 109.614 41.2923 102.394L48.1597 92.8856C97.9041 27.5575 208.663 21.4825 309.472 82.6726C309.472 82.6726 309.472 82.6726 309.472 82.7607C194.576 25.4445 69.114 45.3423 26.5891 126.958Z" fill="#161616"/>
<path d="M26.5891 126.958C30.8151 119.475 36.626 109.614 41.2923 102.394L48.1597 92.8857C97.9041 27.5575 208.663 21.4826 309.472 82.6726C309.472 82.6726 309.472 82.6726 309.472 82.7607C194.576 25.4445 69.114 45.3423 26.5891 126.958ZM26.0608 128.191C68.2335 45.7825 194.664 25.5325 310.088 83.1129C209.631 21.3945 98.9606 26.8532 48.952 91.9172L41.3803 102.394C36.5379 110.054 30.2869 120.267 26.0608 128.191Z" fill="#161616"/>
<path d="M4.22607 191.142L6.16303 182.25C8.54019 173.533 11.8858 162 14.8793 153.547C16.2 149.938 17.7847 146.416 19.4576 142.894C60.3096 58.5488 189.997 31.7836 309.384 82.7607C309.384 82.7607 309.384 82.7607 309.384 82.8487C187.092 42.0847 55.0271 77.2139 14.175 161.471C9.50867 171.156 6.16303 181.105 4.22607 191.142Z" fill="#161616"/>
<path d="M4.22607 191.142L6.16303 182.25C8.54019 173.533 11.8858 162 14.8793 153.547C16.2 149.938 17.7847 146.416 19.4576 142.894C60.3096 58.5488 189.997 31.7836 309.384 82.7607C309.384 82.7607 309.384 82.7607 309.384 82.8487C187.092 42.0847 55.027 77.214 14.175 161.471C9.50867 171.156 6.16303 181.105 4.22607 191.142ZM4.04999 192.375C5.98694 182.162 9.33258 171.949 14.0869 162.088C55.027 77.6542 187.532 42.2608 310.088 83.1129C190.614 31.3434 60.5738 57.7564 19.6336 142.19C18.0489 145.536 16.5521 148.881 15.3195 152.227C12.3261 161.207 8.54019 173.181 6.16303 182.25L4.04999 192.375Z" fill="#161616"/>
<path d="M0.61631 253.213C0.35218 246.521 -0.088036 237.629 7.24103e-06 230.938L0.61631 217.907C17.3445 95.4389 176.703 48.5118 309.296 82.9368V83.0248C186.035 61.014 53.1782 111.375 12.3261 195.632C2.99348 215.002 -0.792382 234.459 0.61631 253.213Z" fill="#161616"/>
<path d="M0.61631 253.212C0.35218 246.521 -0.088036 237.629 7.2401e-06 230.938L0.61631 217.907C17.3445 95.4389 176.703 48.5119 309.296 82.9368V83.0248C186.035 61.014 53.1782 111.375 12.3261 195.632C2.99348 215.002 -0.792382 234.459 0.61631 253.212ZM0.704354 254.357C-0.704339 235.428 2.99348 215.794 12.4141 196.248C53.3542 111.815 186.652 61.1901 310.088 83.1129C139.549 41.7325 10.213 120.267 0.704354 216.675L7.2401e-06 230.938C0.0880505 237.981 0.176094 247.314 0.704354 254.357Z" fill="#161616"/>
<path d="M11.0935 307.535C8.62825 298.555 5.54673 286.493 3.60978 277.424C-0.176079 256.294 3.08152 233.579 14.263 210.512C55.1151 126.166 187.092 69.202 309.384 83.0248V83.1129C189.997 80.8237 60.3097 147.12 19.4576 231.378C6.16304 258.847 3.87391 284.82 11.0935 307.535Z" fill="#161616"/>
<path d="M11.0935 307.535C8.62825 298.555 5.54673 286.493 3.60978 277.424C-0.17608 256.294 3.08152 233.579 14.263 210.511C55.1151 126.166 187.092 69.202 309.384 83.0248V83.1128C189.997 80.8237 60.3097 147.12 19.4576 231.378C6.16304 258.847 3.87391 284.82 11.0935 307.535ZM11.3576 308.504C-17.8728 191.934 154.868 82.7607 310.088 83.1128C187.62 68.6737 55.0271 125.374 14.0869 209.807C2.99348 232.698 -0.176079 255.326 3.4337 276.368C5.45869 286.053 8.62825 298.907 11.3576 308.504Z" fill="#161616"/>
<path d="M30.3749 351.909L28.6141 348.827C25.3565 342.4 21.1304 333.86 18.225 327.257C8.80433 304.542 10.3011 276.984 25.0043 246.697C65.8564 162.44 193.079 89.3639 309.296 83.2009V83.2889C198.89 100.986 76.3335 183.394 35.4814 267.652C19.1054 301.46 18.313 330.426 30.3749 351.909Z" fill="#161616"/>
<path d="M30.3749 351.909L28.6141 348.828C25.3565 342.4 21.1304 333.86 18.225 327.257C8.80433 304.542 10.3011 276.984 25.0043 246.697C65.8564 162.44 193.079 89.3639 309.296 83.2009V83.2889C198.89 100.986 76.3335 183.394 35.4814 267.652C19.1054 301.46 18.313 330.426 30.3749 351.909ZM30.8151 352.613C18.6652 331.219 19.4576 302.253 35.8336 268.356C76.7737 183.922 199.594 100.986 310.088 83.1129C122.556 97.1998 -18.0489 236.572 17.9608 326.376C21.0423 333.156 25.2684 342.136 28.7021 348.828L30.8151 352.613Z" fill="#161616"/>
<path d="M54.5868 386.95L46.6629 376.913L39.9716 367.493C-9.06846 278.921 158.742 122.38 309.472 83.2889C309.472 83.2889 309.472 83.377 309.56 83.377C143.511 152.051 8.5402 330.779 54.5868 386.95Z" fill="#161616"/>
<path d="M54.5868 386.95L46.6629 376.913L39.9717 367.493C-9.06845 278.921 158.742 122.38 309.472 83.2889C309.472 83.2889 309.472 83.377 309.56 83.377C143.511 152.051 8.54021 330.779 54.5868 386.95ZM55.1151 387.479C6.77934 315.987 171.684 137.171 310.088 83.1129C204.26 108.557 85.3139 197.657 44.3738 282.091C27.0293 317.836 26.413 347.067 39.6195 366.876L46.751 376.913L55.1151 387.479Z" fill="#161616"/>
<path d="M82.2324 414.948L74.0444 407.64L65.7683 399.452C52.5618 385.542 54.0586 357.544 73.252 317.836C114.104 233.579 219.756 128.719 309.472 83.377C231.202 139.461 134.706 252.948 93.8541 337.206C73.8683 378.41 70.8748 405.087 82.2324 414.948Z" fill="#161616"/>
<path d="M82.2324 414.948L74.0444 407.64L65.7683 399.452C52.5618 385.542 54.0586 357.544 73.252 317.836C114.104 233.579 219.756 128.719 309.472 83.377C231.202 139.461 134.706 252.948 93.8541 337.206C73.8683 378.41 70.8748 405.087 82.2324 414.948ZM82.7607 415.476C71.4911 405.703 74.4846 379.114 94.5585 337.822C135.499 253.389 231.994 139.373 310.176 83.1129C220.02 128.015 113.752 232.786 72.8118 317.22C53.6184 356.839 52.2097 384.925 65.4162 398.924L74.2205 407.64L82.7607 415.476Z" fill="#161616"/>
<path d="M110.935 436.166C106.356 433.173 100.281 429.123 95.7911 425.865L94.2063 424.633C84.8737 417.589 89.2759 392.145 109.702 349.972C150.554 265.715 240.006 146.504 309.648 83.465C309.648 83.465 309.736 83.465 309.736 83.5531C252.86 155.396 173.797 281.65 132.945 365.908C112.255 408.785 105.3 432.469 110.935 436.166Z" fill="#161616"/>
<path d="M110.935 436.166C106.356 433.173 100.281 429.123 95.7911 425.865L94.2063 424.633C84.8737 417.589 89.2759 392.145 109.702 349.972C150.554 265.715 240.006 146.504 309.648 83.465C309.648 83.465 309.736 83.465 309.736 83.5531C252.86 155.396 173.797 281.65 132.945 365.908C112.255 408.785 105.3 432.469 110.935 436.166ZM111.463 436.431C105.916 432.909 112.96 409.225 133.738 366.348C174.678 281.915 253.653 155.044 310.088 83.0248C240.006 145.712 149.938 265.01 108.998 349.444C88.5715 391.528 84.2574 417.061 93.678 424.281L95.7911 425.865C100.545 429.123 106.708 433.437 111.463 436.431Z" fill="#161616"/>
<path d="M140.605 451.838C135.323 449.373 128.367 446.027 123.173 443.298C120.619 441.801 129.512 419.262 150.378 376.121C191.23 291.863 262.545 161.031 309.736 83.5531H309.824C276.368 167.81 216.234 304.102 175.382 388.359C154.516 431.588 142.718 452.719 140.605 451.838Z" fill="#161616"/>
<path d="M140.605 451.838C135.323 449.373 128.367 446.027 123.173 443.298C120.619 441.801 129.512 419.262 150.378 376.121C191.23 291.863 262.545 161.031 309.736 83.5531H309.824C276.368 167.81 216.234 304.101 175.382 388.359C154.516 431.588 142.718 452.719 140.605 451.838ZM141.221 452.102C143.423 453.071 155.396 431.94 176.351 388.799C217.291 304.366 277.16 167.546 310.176 83.1129C262.457 160.239 190.614 291.247 149.674 375.681C128.807 418.822 120.003 441.449 122.732 442.946C128.103 445.675 135.323 449.373 140.781 451.838L141.221 452.102Z" fill="#161616"/>
<path d="M172.125 463.108L164.553 460.819L153.459 457.033C159.094 459.058 173.005 438.72 193.871 395.843C234.811 311.673 286.669 172.037 310 83.6411H310.088C301.108 176.703 260.784 320.125 219.932 404.383C199.418 446.644 182.69 466.013 172.125 463.108Z" fill="#161616"/>
<path d="M172.125 463.108L164.553 460.818L153.459 457.033C159.094 459.058 173.005 438.72 193.871 395.842C234.811 311.673 286.669 172.037 310 83.6411H310.088C301.108 176.703 260.784 320.125 219.932 404.383C199.418 446.643 182.69 466.013 172.125 463.108ZM172.741 463.284C183.394 466.189 200.21 446.82 220.724 404.559C261.665 320.125 301.636 176.175 310.088 83.0248C286.405 171.156 234.019 311.057 193.079 395.49C172.301 438.367 158.39 458.705 152.931 456.768L164.553 460.818L172.741 463.284Z" fill="#161616"/>
<path d="M206.638 470.063C201.619 469.271 195.016 468.302 190.085 467.422L186.123 466.629C199.946 469.535 218.523 450.693 238.685 409.049C279.537 324.792 311.497 179.256 310.088 83.6411H310.176C325.936 181.721 305.598 329.194 264.746 413.451C245.289 453.687 224.686 472.264 206.638 470.063Z" fill="#161616"/>
<path d="M206.638 470.063C201.619 469.271 195.016 468.302 190.085 467.422L186.123 466.629C199.946 469.535 218.523 450.694 238.685 409.049C279.537 324.792 311.497 179.256 310.088 83.6411H310.176C325.936 181.721 305.598 329.194 264.746 413.451C245.289 453.687 224.686 472.264 206.638 470.063ZM207.342 470.151C225.479 472.264 246.169 453.775 265.715 413.627C306.655 329.194 326.553 181.193 310.176 83.1129C311.233 178.64 278.921 324.439 237.981 408.873C217.819 450.517 199.33 469.447 185.595 466.453L190.173 467.422C195.192 468.302 202.059 469.535 207.342 470.151Z" fill="#161616"/>
<path d="M245.112 471.824C238.245 471.912 229.001 471.824 222.133 471.56C242.647 472.704 264.482 454.303 283.323 415.3C324.175 331.043 336.149 182.778 310.176 83.7292H310.264C350.148 182.954 349.444 331.307 308.592 415.564C290.807 452.366 268.268 470.855 245.112 471.824Z" fill="#161616"/>
<path d="M245.112 471.824C238.245 471.912 229.001 471.824 222.133 471.56C242.647 472.704 264.482 454.303 283.323 415.3C324.175 331.043 336.149 182.778 310.176 83.7292H310.264C350.148 182.954 349.444 331.307 308.592 415.564C290.807 452.366 268.268 470.855 245.112 471.824ZM245.905 471.736C335.885 460.114 371.895 242.207 310.176 83.1129C335.885 182.073 323.559 330.779 282.619 415.212C263.69 454.303 241.943 472.704 221.517 471.472C228.736 471.736 238.597 472.264 245.905 471.736Z" fill="#161616"/>
<path d="M289.31 465.925L281.122 467.686C275.664 468.566 268.532 469.799 263.073 470.503C287.109 467.686 309.56 449.109 326.464 414.332C367.317 330.074 360.097 182.25 310.441 83.8172H310.529C373.304 180.049 391 326.112 350.148 410.37C334.829 441.801 313.434 460.29 289.31 465.925Z" fill="#161616"/>
<path d="M289.31 465.925L281.122 467.686C275.663 468.566 268.532 469.799 263.073 470.503C287.109 467.686 309.56 449.109 326.464 414.332C367.317 330.074 360.097 182.25 310.441 83.8172H310.529C373.304 180.049 391 326.112 350.148 410.37C334.829 441.801 313.434 460.29 289.31 465.925ZM290.191 465.661C314.226 459.938 335.621 441.537 350.852 410.018C391.793 325.584 373.568 179.256 310.088 83.1129C359.569 181.633 366.524 329.898 325.584 414.332C308.68 449.197 286.229 467.774 262.193 470.503C267.828 469.711 275.487 468.654 281.122 467.598L290.191 465.661Z" fill="#161616"/>
<path d="M339.143 448.228C332.804 451.046 324.439 454.832 318.012 457.297L309.56 460.29C332.539 452.719 352.437 434.582 366.436 405.703C407.288 321.446 382.284 177.407 310.617 83.6411H310.705C394.082 172.653 428.595 312.906 387.743 397.163C375.857 421.463 359.04 438.456 339.143 448.228Z" fill="#161616"/>
<path d="M339.143 448.228C332.804 451.046 324.44 454.832 318.012 457.297L309.56 460.29C332.539 452.719 352.437 434.582 366.436 405.703C407.288 321.446 382.284 177.407 310.617 83.6411H310.705C394.082 172.653 428.595 312.906 387.743 397.163C375.857 421.463 359.041 438.456 339.143 448.228ZM340.111 447.788C359.921 438.015 376.561 421.023 388.271 396.899C429.211 312.466 394.17 172.037 310.088 83.2009C410.986 223.366 410.194 420.935 308.592 460.642L318.012 457.385C324.704 454.567 333.596 450.958 340.111 447.788Z" fill="#161616"/>
<path d="M390.736 414.244C371.543 429.563 371.543 429.563 360.801 436.342C377.706 425.777 391.793 410.194 401.83 389.415C442.682 305.158 401.83 168.427 310.617 83.6411C310.617 83.6411 310.617 83.6411 310.705 83.6411C411.514 161.295 460.114 292.304 419.174 376.649C411.955 391.704 402.27 404.207 390.736 414.244Z" fill="#161616"/>
<path d="M390.736 414.244C371.543 429.563 371.543 429.563 360.801 436.342C377.706 425.777 391.793 410.194 401.83 389.415C442.682 305.158 401.83 168.427 310.617 83.6411C310.617 83.6411 310.617 83.6411 310.705 83.6411C411.514 161.295 460.114 292.304 419.174 376.649C411.955 391.705 402.27 404.207 390.736 414.244ZM391.616 413.451C402.974 403.502 412.483 391.088 419.702 376.209C460.642 291.775 411.602 160.591 310.088 83.1129C401.389 168.075 442.153 305.334 401.213 389.768C391.088 410.722 376.825 426.394 359.745 436.959C378.938 424.104 380.963 422.784 391.616 413.451Z" fill="#161616"/>
<path d="M434.846 363.091L430.62 369.518C424.897 377.265 416.973 387.39 410.722 394.698C418.206 386.422 424.633 376.913 429.827 366.26C470.679 282.003 417.413 155.572 310.793 83.465C310.793 83.465 310.793 83.465 310.793 83.377C424.016 146.768 482.741 266.155 441.889 350.412C439.776 354.902 437.399 359.129 434.846 363.091Z" fill="#161616"/>
<path d="M434.846 363.09L430.62 369.518C424.897 377.265 416.973 387.39 410.722 394.698C418.206 386.422 424.633 376.913 429.827 366.26C470.679 282.003 417.413 155.572 310.793 83.465C310.793 83.465 310.793 83.465 310.793 83.377C424.016 146.768 482.741 266.155 441.889 350.412C439.776 354.902 437.399 359.129 434.846 363.09ZM435.55 362.034C437.927 358.248 440.216 354.198 442.241 350.06C483.182 265.627 424.016 146.152 310.176 83.1129C416.973 155.308 470.327 282.355 429.387 366.788C424.105 377.618 417.501 387.302 409.842 395.667C416.357 388.007 424.721 377.618 430.62 369.518L435.55 362.034Z" fill="#161616"/>
<path d="M463.108 300.228C455.624 323.031 455.184 324.44 449.021 337.558C489.08 253.389 427.45 139.901 310.793 83.465C310.793 83.465 310.793 83.465 310.793 83.377C422.168 126.43 485.911 219.844 463.108 300.228Z" fill="#161616"/>
<path d="M463.108 300.228C455.624 323.031 455.184 324.439 449.021 337.558C489.08 253.389 427.45 139.901 310.793 83.465C310.793 83.465 310.793 83.465 310.793 83.377C422.168 126.43 485.911 219.844 463.108 300.228ZM463.46 298.995C486.527 193.343 395.226 116.657 310.176 83.1129C427.362 139.901 489.257 254.269 448.493 338.703C456.504 320.125 460.202 311.673 463.46 298.995Z" fill="#161616"/>
<path d="M472 236.484L471.912 240.974C471.296 250.659 470.239 263.514 469.007 273.198C481.245 197.481 417.325 117.45 310.793 83.2889C310.793 83.2889 310.793 83.2889 310.793 83.2009C409.665 105.916 472.176 168.955 472 236.484Z" fill="#161616"/>
<path d="M472 236.484L471.912 240.974C471.296 250.659 470.239 263.513 469.007 273.198C481.245 197.481 417.325 117.45 310.793 83.2889C310.793 83.2889 310.793 83.2889 310.793 83.2009C409.665 105.916 472.176 168.955 472 236.484ZM472 235.34C465.485 126.254 346.45 91.2128 310.088 83.0248C417.325 117.362 481.509 198.185 468.83 274.343C470.063 264.394 471.384 251.011 471.912 240.974L472 235.34Z" fill="#161616"/>
<path d="M465.221 179.784L468.654 196.16L470.767 211.832C464.604 150.818 403.943 98.6085 310.881 83.2889V83.2009C395.49 89.2759 452.631 128.103 465.221 179.784Z" fill="#161616"/>
<path d="M465.221 179.784L468.654 196.16L470.767 211.832C464.604 150.818 403.943 98.6085 310.881 83.2889V83.2009C395.49 89.2759 452.63 128.103 465.221 179.784ZM464.956 178.816C452.19 127.311 394.874 88.8357 310.088 83.1129C403.854 98.6085 464.868 151.346 470.855 212.889L468.566 196.16C467.51 190.878 466.277 183.922 464.956 178.816Z" fill="#161616"/>
<path d="M448.052 132.417C451.31 139.637 455.448 149.321 458.265 156.717L458.882 158.478C438.103 109.262 388.271 83.9053 310.793 83.1129V83.0248C381.139 76.0694 430.444 96.1433 448.052 132.417Z" fill="#161616"/>
<path d="M448.052 132.417C451.31 139.637 455.448 149.321 458.265 156.717L458.882 158.478C438.103 109.262 388.271 83.9053 310.793 83.1129V83.0248C381.139 76.0694 430.444 96.1433 448.052 132.417ZM447.7 131.625C430.003 95.4389 380.523 75.7172 310.088 83.1129C389.239 83.465 443.738 114.104 459.234 159.446L458.265 156.717C455.272 149.145 451.222 139.02 447.7 131.625Z" fill="#161616"/>
<path d="M424.897 94.4704L425.249 94.9987C429.475 101.074 435.022 109.262 438.984 115.513C420.935 84.9618 375.329 71.4031 310.793 82.9368C310.793 82.9368 310.793 82.8487 310.705 82.8487C367.317 65.5922 407.464 71.315 424.897 94.4704Z" fill="#161616"/>
<path d="M424.897 94.4704L425.249 94.9987C429.475 101.074 435.022 109.262 438.984 115.513C420.935 84.9618 375.329 71.4031 310.793 82.9368C310.793 82.9368 310.793 82.8487 310.705 82.8487C367.317 65.5923 407.464 71.3151 424.897 94.4704ZM424.457 93.9422C407.112 70.8748 366.788 65.4162 310.176 83.1129C375.24 71.4912 421.287 85.402 439.336 116.217C435.198 109.79 429.651 101.25 425.249 94.9987L424.457 93.9422Z" fill="#161616"/>
<path d="M398.132 64.5357C403.062 69.4661 409.577 76.1574 414.244 81.352C393.994 61.9825 363.002 62.4227 310.705 82.8487C310.705 82.8487 310.705 82.7607 310.617 82.7607C354.198 56.876 384.573 51.7694 398.132 64.5357Z" fill="#161616"/>
<path d="M398.132 64.5357C403.062 69.4661 409.577 76.1574 414.244 81.352C393.994 61.9825 363.002 62.4227 310.705 82.8487C310.705 82.8487 310.705 82.7607 310.617 82.7607C354.198 56.876 384.573 51.7694 398.132 64.5357ZM397.868 64.2716C384.309 51.5053 353.846 56.7879 310.088 83.0248C361.858 61.7183 398.572 62.8629 414.684 81.8802C409.753 76.5096 403.15 69.3781 397.868 64.2716Z" fill="#161616"/>
</g>
<defs>
<clipPath id="clip0_9_203">
<rect width="472" height="472" fill="white"/>
</clipPath>
</defs>
</svg>
