<svg width="472" height="490" viewBox="0 0 472 490" fill="none" xmlns="http://www.w3.org/2000/svg">
<g clip-path="url(#clip0_9_15)">
<path d="M291.595 306.965C290.483 308.075 289.26 309.129 288.037 310.128C288.259 309.961 288.537 309.684 288.76 309.518C289.649 308.63 290.594 307.797 291.595 306.965Z" fill="black"/>
<path d="M291.595 306.965C290.483 308.075 289.26 309.129 288.037 310.128C288.259 309.961 288.537 309.684 288.76 309.518C289.649 308.63 290.594 307.797 291.595 306.965ZM291.762 306.798C290.705 307.631 289.705 308.519 288.76 309.462C288.537 309.684 288.259 309.906 288.037 310.128C289.371 309.074 290.594 307.964 291.762 306.798Z" fill="#161616"/>
<path d="M299.767 296.475C298.433 298.751 296.987 300.86 295.375 302.858C293.207 304.578 291.261 306.521 289.538 308.629C289.983 308.075 290.483 307.242 290.872 306.632C293.096 302.858 296.042 299.417 299.767 296.475Z" fill="black"/>
<path d="M299.767 296.475C298.433 298.751 296.988 300.86 295.375 302.858C293.207 304.578 291.261 306.521 289.538 308.629C289.983 308.074 290.483 307.242 290.872 306.632C293.096 302.858 296.042 299.417 299.767 296.475ZM299.878 296.253C296.098 299.25 293.096 302.747 290.928 306.576C290.038 308.019 290.038 308.019 289.482 308.685C291.15 306.632 293.04 304.8 295.209 303.08C296.932 300.915 298.544 298.64 299.878 296.253Z" fill="#161616"/>
<path d="M305.104 283.877C304.382 286.485 303.437 288.983 302.38 291.425C297.599 295.199 294.152 299.639 291.984 304.578C292.318 303.69 292.762 302.525 293.096 301.637L293.374 300.638C296.042 293.256 297.877 290.204 305.104 283.877Z" fill="black"/>
<path d="M305.104 283.877C304.382 286.485 303.437 288.983 302.38 291.425C297.599 295.199 294.152 299.639 291.984 304.578C292.318 303.69 292.762 302.525 293.096 301.637L293.374 300.638C296.042 293.256 297.877 290.204 305.104 283.877ZM305.16 283.6C298.544 289.482 296.209 292.424 293.374 300.471L293.04 301.581C292.707 302.525 292.262 303.746 291.873 304.634C294.097 299.75 297.488 295.365 302.213 291.647C303.381 289.094 304.382 286.374 305.16 283.6Z" fill="#161616"/>
<path d="M307.495 269.669C307.328 272.555 306.995 275.33 306.494 278.105C301.38 282.656 296.543 286.929 294.263 296.919L294.597 294.866C294.708 293.534 294.931 291.813 295.042 290.481C295.653 285.486 296.654 278.605 307.495 269.669Z" fill="black"/>
<path d="M307.495 269.669C307.328 272.555 306.995 275.33 306.494 278.105C301.379 282.656 296.543 286.929 294.263 296.919L294.597 294.866C294.708 293.534 294.931 291.813 295.042 290.481C295.653 285.486 296.654 278.605 307.495 269.669ZM307.495 269.392C299.489 275.774 295.431 282.934 294.986 290.259C294.875 291.647 294.708 293.478 294.541 294.866L294.152 297.086C295.486 290.259 299.489 283.877 306.383 278.383C306.939 275.441 307.328 272.444 307.495 269.392Z" fill="#161616"/>
<path d="M306.828 254.407C307.273 257.459 307.495 260.456 307.551 263.398C299.489 270.446 295.542 275.497 295.042 285.098C294.875 282.49 294.597 279.049 294.319 276.44C293.374 269.558 297.377 261.899 306.828 254.407Z" fill="black"/>
<path d="M306.828 254.407C307.273 257.46 307.495 260.456 307.551 263.398C299.489 270.446 295.542 275.497 295.042 285.098C294.875 282.49 294.597 279.049 294.319 276.44C293.374 269.558 297.377 261.899 306.828 254.407ZM306.772 254.074C297.265 261.622 293.318 269.225 294.263 276.107C294.541 278.882 294.931 282.545 295.042 285.32C294.875 277.994 298.933 270.502 307.551 263.62C307.495 260.512 307.273 257.349 306.772 254.074Z" fill="#161616"/>
<path d="M303.103 238.479C304.159 241.587 304.993 244.695 305.66 247.747C295.431 256.516 292.262 261.955 293.096 269.447C292.484 267.116 291.762 264.008 291.039 261.677L290.205 259.18C289.649 256.072 288.537 250.3 303.103 238.479Z" fill="black"/>
<path d="M303.103 238.479C304.159 241.587 304.993 244.695 305.66 247.747C295.431 256.516 292.262 261.955 293.096 269.447C292.484 267.116 291.762 264.008 291.039 261.677L290.205 259.18C289.649 256.072 288.537 250.3 303.103 238.479ZM302.992 238.146C297.377 242.863 287.926 250.8 290.094 258.791L291.039 261.677C291.706 264.119 292.596 267.338 293.151 269.78C291.817 263.453 295.82 255.906 305.716 248.025C304.993 244.806 304.104 241.476 302.992 238.146Z" fill="#161616"/>
<path d="M296.154 222.44C297.821 225.548 299.267 228.656 300.601 231.763C289.816 240.366 285.591 247.081 287.314 251.299L285.757 247.692C284.645 245.361 283.144 242.308 281.977 240.033C281.032 236.481 285.035 231.541 296.154 222.44Z" fill="black"/>
<path d="M296.154 222.44C297.821 225.548 299.267 228.656 300.601 231.764C289.816 240.366 285.591 247.081 287.314 251.299L285.757 247.692C284.645 245.361 283.144 242.308 281.977 240.033C281.032 236.481 285.035 231.541 296.154 222.44ZM295.987 222.107C286.369 229.988 280.643 235.648 281.699 239.644C282.922 242.031 284.59 245.25 285.702 247.692L287.425 251.632C286.424 247.192 288.315 242.197 300.712 232.041C299.322 228.711 297.766 225.437 295.987 222.107Z" fill="#161616"/>
<path d="M288.315 209.952C290.372 212.783 292.318 215.724 294.097 218.777C282.866 227.712 278.141 233.373 279.364 235.537C277.251 232.152 274.416 227.712 272.137 224.438C271.692 223.772 276.973 218.943 288.315 209.952Z" fill="black"/>
<path d="M288.315 209.952C290.372 212.783 292.318 215.724 294.097 218.777C282.866 227.712 278.141 233.373 279.364 235.537C277.251 232.152 274.416 227.712 272.137 224.438C271.692 223.772 276.973 218.943 288.315 209.952ZM288.148 209.675C276.807 218.721 271.469 223.494 271.914 224.105C274.249 227.546 277.363 232.207 279.531 235.759C278.252 233.595 282.978 227.879 294.208 218.943C292.318 215.724 290.316 212.616 288.148 209.675Z" fill="#161616"/>
<path d="M276.807 196.466C279.197 198.853 281.532 201.35 283.7 204.014C272.359 213.06 266.633 217.278 266.355 217.001C264.242 214.614 261.462 211.395 259.239 209.12L257.682 207.566C258.627 207.954 261.073 209.009 276.807 196.466Z" fill="black"/>
<path d="M276.807 196.466C279.197 198.853 281.532 201.35 283.7 204.014C272.359 213.06 266.633 217.278 266.355 217.001C264.242 214.614 261.462 211.395 259.239 209.12L257.682 207.566C258.627 207.954 261.073 209.009 276.807 196.466ZM276.584 196.244C265.298 205.18 258.905 208.731 257.404 207.233L259.239 209.12C261.462 211.562 264.465 214.781 266.633 217.334C266.855 217.556 272.581 213.282 283.923 204.292C281.588 201.461 279.142 198.797 276.584 196.244Z" fill="#161616"/>
<path d="M263.742 185.422C266.41 187.309 268.968 189.362 271.469 191.527C260.351 200.351 253.457 203.459 251.066 201.406L247.453 198.409L241.671 194.024C245.451 196.633 252.956 194.024 263.742 185.422Z" fill="black"/>
<path d="M263.742 185.422C266.41 187.309 268.968 189.362 271.469 191.527C260.35 200.351 253.457 203.459 251.066 201.406L247.453 198.409L241.671 194.024C245.451 196.633 252.956 194.024 263.742 185.422ZM263.519 185.255C252.734 193.858 245.229 196.466 241.448 193.802C243.283 195.19 245.729 196.966 247.508 198.409L251.4 201.683C253.735 203.681 260.573 200.573 271.747 191.749C269.079 189.418 266.355 187.253 263.519 185.255Z" fill="#161616"/>
<path d="M249.676 177.042C252.456 178.374 255.236 179.928 257.96 181.592C247.397 189.973 239.558 192.359 234.944 189.529C232.164 187.975 228.495 185.866 225.659 184.478C231.441 187.198 239.669 184.978 249.676 177.042Z" fill="black"/>
<path d="M249.676 177.042C252.456 178.374 255.236 179.927 257.96 181.592C247.397 189.973 239.558 192.359 234.944 189.529C232.164 187.975 228.495 185.866 225.659 184.478C231.441 187.198 239.669 184.978 249.676 177.042ZM249.398 176.931C239.391 184.867 231.163 187.087 225.381 184.312C228.384 185.866 232.331 188.03 235.222 189.695C239.78 192.526 247.675 190.139 258.238 181.759C255.347 179.983 252.345 178.374 249.398 176.931Z" fill="#161616"/>
<path d="M234.999 171.547C237.89 172.324 240.726 173.268 243.561 174.378C234.054 181.925 225.715 184.145 219.266 181.648C217.265 180.926 214.596 179.928 212.539 179.317L210.927 178.873C217.932 180.76 226.215 178.485 234.999 171.547Z" fill="black"/>
<path d="M234.999 171.547C237.89 172.324 240.726 173.268 243.561 174.378C234.054 181.925 225.715 184.145 219.266 181.648C217.265 180.926 214.596 179.928 212.539 179.317L210.927 178.873C217.932 180.76 226.215 178.485 234.999 171.547ZM234.721 171.436C225.993 178.374 217.765 180.593 210.649 178.762L212.539 179.262C214.652 179.983 217.487 180.871 219.544 181.703C225.937 184.201 234.277 182.036 243.839 174.433C240.781 173.268 237.723 172.269 234.721 171.436Z" fill="#161616"/>
<path d="M220.267 169.105C223.102 169.272 225.937 169.605 228.828 170.104C223.269 174.1 216.319 179.095 205.534 177.597L202.977 177.208C201.754 177.097 200.197 176.875 198.974 176.82C205.979 177.153 213.206 174.711 220.267 169.105Z" fill="black"/>
<path d="M220.267 169.105C223.102 169.272 225.937 169.605 228.828 170.104C223.269 174.1 216.319 179.095 205.534 177.597L202.977 177.208C201.754 177.097 200.197 176.875 198.974 176.82C205.979 177.153 213.206 174.711 220.267 169.105ZM219.989 169.105C213.429 173.767 208.425 176.82 198.807 176.82C200.086 176.931 201.754 177.042 202.977 177.208L205.756 177.652C212.984 178.984 220.989 176.653 229.106 170.16C225.993 169.605 222.991 169.272 219.989 169.105Z" fill="#161616"/>
<path d="M205.923 170.049C208.647 169.549 211.371 169.216 214.151 169.105C207.98 174.045 201.42 176.487 194.915 176.82C193.637 176.931 191.913 177.097 190.635 177.319C194.526 176.32 198.863 175.155 202.754 172.38C203.699 171.658 204.867 170.493 205.923 170.049Z" fill="black"/>
<path d="M205.923 170.049C208.647 169.549 211.371 169.216 214.151 169.105C207.98 174.045 201.42 176.487 194.915 176.82C193.637 176.931 191.913 177.097 190.635 177.319C194.526 176.32 198.863 175.155 202.754 172.38C203.699 171.658 204.867 170.493 205.923 170.049ZM205.701 170.104C200.92 173.878 195.805 176.265 190.523 177.319C193.359 176.875 193.414 176.875 195.082 176.82C201.642 176.542 208.203 174.045 214.429 169.105C211.483 169.216 208.536 169.549 205.701 170.104Z" fill="#161616"/>
<path d="M192.58 174.489C193.192 174.211 193.748 173.934 194.359 173.656C196.25 172.824 198.196 172.047 200.197 171.436C196.472 174.378 192.469 176.487 188.355 177.763C187.744 177.985 186.965 178.263 186.354 178.485L185.853 178.707C188.188 177.597 190.468 176.209 192.58 174.489Z" fill="black"/>
<path d="M192.58 174.489C193.192 174.211 193.748 173.934 194.359 173.656C196.25 172.824 198.196 172.047 200.197 171.436C196.472 174.378 192.469 176.487 188.355 177.763C187.744 177.985 186.965 178.263 186.354 178.485L185.853 178.707C188.188 177.597 190.468 176.209 192.58 174.489ZM192.358 174.6C190.301 176.265 188.133 177.652 185.853 178.762L186.409 178.485C187.021 178.263 187.855 177.93 188.466 177.708C192.692 176.431 196.75 174.322 200.475 171.325C198.418 171.936 196.361 172.713 194.415 173.601C193.692 173.989 193.025 174.267 192.358 174.6Z" fill="#161616"/>
<path d="M187.577 177.375C186.632 178.096 185.687 178.818 184.742 179.428C184.519 179.595 184.241 179.761 184.074 179.928C185.131 179.04 186.354 178.207 187.577 177.375Z" fill="black"/>
<path d="M187.577 177.375C186.632 178.096 185.687 178.818 184.742 179.428C184.519 179.595 184.241 179.761 184.074 179.928C185.131 179.04 186.354 178.207 187.577 177.375ZM187.799 177.264C186.521 178.096 185.242 178.984 184.074 179.983C184.297 179.817 184.575 179.595 184.797 179.484C185.798 178.762 186.799 178.041 187.799 177.264Z" fill="#161616"/>
<path d="M394.779 335.214C392.444 337.489 390.053 339.598 387.496 341.651C357.086 304.634 312.776 290.481 288.037 310.128C289.26 309.129 290.483 308.075 291.595 306.965C316.335 287.318 362.311 300.027 394.779 335.214Z" fill="black"/>
<path d="M394.779 335.214C392.444 337.489 390.053 339.598 387.496 341.651C357.086 304.634 312.776 290.481 288.037 310.128C289.26 309.129 290.483 308.075 291.595 306.965C316.335 287.318 362.311 300.027 394.779 335.214ZM395.891 335.713C363.312 299.972 316.724 286.985 291.762 306.798C290.594 307.964 289.315 309.073 288.037 310.128C312.943 290.315 357.808 304.856 388.219 342.539C390.887 340.375 393.5 338.099 395.891 335.713Z" fill="#161616"/>
<path d="M411.402 313.791C408.733 318.397 405.731 322.726 402.395 326.833C367.76 293.978 320.059 283.211 295.32 302.858C296.932 300.86 298.433 298.695 299.712 296.475C324.507 276.829 374.264 284.598 411.402 313.791Z" fill="black"/>
<path d="M411.402 313.791C408.733 318.397 405.731 322.726 402.395 326.833C367.76 293.978 320.059 283.211 295.32 302.858C296.932 300.86 298.433 298.695 299.712 296.475C324.507 276.829 374.264 284.599 411.402 313.791ZM412.569 314.013C375.265 284.377 324.841 276.385 299.878 296.198C298.489 298.584 296.932 300.86 295.208 303.024C320.115 283.211 368.316 294.422 402.951 327.999C406.509 323.67 409.734 319.008 412.569 314.013Z" fill="#161616"/>
<path d="M422.243 288.095C420.742 293.423 418.851 298.529 416.683 303.468C378.045 277.217 327.12 271.723 302.38 291.369C303.437 288.927 304.382 286.43 305.104 283.822C329.844 264.23 382.048 266.173 422.243 288.095Z" fill="black"/>
<path d="M422.243 288.095C420.742 293.423 418.851 298.529 416.683 303.468C378.045 277.217 327.12 271.723 302.38 291.369C303.437 288.927 304.382 286.43 305.104 283.821C329.844 264.23 382.048 266.173 422.243 288.095ZM423.355 288.095C382.993 265.84 330.066 263.786 305.16 283.599C304.382 286.374 303.381 289.094 302.269 291.647C327.175 271.834 378.712 277.661 417.406 304.578C419.741 299.361 421.742 293.811 423.355 288.095Z" fill="#161616"/>
<path d="M427.079 259.18C426.746 265.007 426.023 270.779 425.022 276.329C384.049 257.737 331.178 258.459 306.439 278.105C306.939 275.386 307.273 272.555 307.439 269.669C332.179 250.023 385.55 245.416 427.079 259.18Z" fill="black"/>
<path d="M427.079 259.18C426.746 265.007 426.023 270.779 425.022 276.329C384.049 257.737 331.178 258.458 306.439 278.105C306.939 275.386 307.273 272.555 307.439 269.669C332.179 250.023 385.55 245.416 427.079 259.18ZM428.136 258.958C386.384 244.972 332.401 249.579 307.495 269.392C307.328 272.444 306.939 275.441 306.383 278.327C331.289 258.514 384.772 258.07 425.912 277.273C427.024 271.334 427.802 265.229 428.136 258.958Z" fill="#161616"/>
<path d="M425.801 227.99C426.635 234.205 427.191 240.31 427.302 246.304C385.661 236.148 332.29 243.696 307.551 263.342C307.495 260.401 307.217 257.404 306.828 254.352C331.568 234.705 384.605 223.05 425.801 227.99Z" fill="black"/>
<path d="M425.801 227.99C426.635 234.205 427.191 240.31 427.302 246.304C385.661 236.148 332.29 243.696 307.551 263.342C307.495 260.401 307.217 257.404 306.828 254.352C331.567 234.705 384.605 223.05 425.801 227.99ZM426.69 227.546C385.383 222.44 331.734 234.316 306.772 254.13C307.217 257.349 307.495 260.567 307.551 263.675C332.457 243.862 386.495 236.481 428.302 247.192C428.191 240.699 427.635 234.15 426.69 227.546Z" fill="#161616"/>
<path d="M418.129 195.578C420.241 201.905 421.965 208.232 423.355 214.503C379.768 214.115 332.457 227.49 305.605 247.747C304.938 244.695 304.104 241.587 303.047 238.479C334.848 214.559 383.771 199.685 418.129 195.578Z" fill="black"/>
<path d="M418.129 195.578C420.241 201.905 421.965 208.232 423.355 214.503C379.768 214.115 332.457 227.49 305.605 247.747C304.938 244.695 304.104 241.587 303.047 238.479C334.848 214.559 383.771 199.685 418.129 195.578ZM418.907 194.857C379.824 199.019 327.954 218.388 302.992 238.201C304.104 241.531 304.993 244.806 305.716 248.08C330.622 228.267 383.771 213.56 424.466 215.169C423.021 208.398 421.186 201.628 418.907 194.857Z" fill="#161616"/>
<path d="M404.008 162.834C407.399 169.161 410.401 175.488 413.014 181.815C375.376 189.862 325.285 212.061 300.546 231.708C299.267 228.6 297.766 225.492 296.098 222.384C320.893 202.793 368.927 176.265 404.008 162.834Z" fill="black"/>
<path d="M404.008 162.834C407.399 169.161 410.401 175.488 413.014 181.814C375.376 189.862 325.285 212.061 300.546 231.708C299.267 228.6 297.766 225.492 296.098 222.384C320.893 202.793 368.927 176.265 404.008 162.834ZM404.508 161.89C369.483 175.377 320.893 202.294 295.987 222.107C297.766 225.381 299.323 228.711 300.712 232.041C325.619 212.228 376.432 189.973 414.237 182.258C411.402 175.432 408.177 168.661 404.508 161.89Z" fill="#161616"/>
<path d="M388.107 137.36C392.277 143.132 396.224 149.126 399.894 155.397C365.981 170.881 318.892 199.075 294.152 218.777C292.373 215.724 290.427 212.727 288.37 209.952C313.054 190.306 357.53 157.95 388.107 137.36Z" fill="black"/>
<path d="M388.107 137.36C392.277 143.132 396.224 149.126 399.894 155.397C365.981 170.881 318.892 199.075 294.152 218.777C292.373 215.724 290.427 212.727 288.37 209.952C313.054 190.306 357.53 157.95 388.107 137.36ZM388.385 136.305C357.919 157.006 313.054 189.806 288.092 209.619C290.261 212.561 292.262 215.669 294.152 218.943C319.059 199.13 366.815 170.715 400.839 155.397C397.003 148.793 392.833 142.41 388.385 136.305Z" fill="#161616"/>
<path d="M364.646 109.943C369.539 114.772 374.209 119.933 378.712 125.317C350.748 149.292 308.44 184.367 283.756 204.014C281.532 201.35 279.253 198.853 276.862 196.466C301.546 176.82 340.685 138.248 364.646 109.943Z" fill="black"/>
<path d="M364.646 109.943C369.539 114.772 374.209 119.933 378.712 125.317C350.748 149.292 308.44 184.367 283.756 204.014C281.532 201.35 279.253 198.853 276.862 196.466C301.546 176.82 340.685 138.248 364.646 109.943ZM364.702 108.778C340.907 137.304 301.491 176.431 276.584 196.244C279.142 198.797 281.588 201.461 283.923 204.292C308.829 184.478 351.748 149.126 379.768 125.261C374.987 119.489 369.984 113.939 364.702 108.778Z" fill="#161616"/>
<path d="M338.016 87.4108C343.409 91.2402 348.691 95.4026 353.805 99.8425C332.902 130.977 296.265 171.825 271.525 191.527C269.023 189.362 266.41 187.309 263.797 185.422C288.481 165.775 321.56 122.098 338.016 87.4108Z" fill="black"/>
<path d="M338.016 87.4108C343.409 91.2402 348.691 95.4026 353.805 99.8425C332.902 130.977 296.265 171.825 271.525 191.527C269.023 189.362 266.41 187.309 263.797 185.422C288.481 165.775 321.56 122.098 338.016 87.4108ZM337.85 86.2453C321.672 121.154 288.426 165.442 263.519 185.255C266.355 187.253 269.079 189.418 271.747 191.749C296.654 171.936 333.847 130.7 354.806 99.565C349.302 94.7921 343.687 90.3522 337.85 86.2453Z" fill="#161616"/>
<path d="M309.218 70.3171C314.945 73.0921 320.615 76.1445 326.119 79.5855C312.999 116.437 282.644 161.946 257.904 181.592C255.18 179.928 252.4 178.429 249.621 177.042C274.36 157.395 300.879 109.832 309.218 70.3171Z" fill="black"/>
<path d="M309.218 70.3171C314.945 73.0921 320.615 76.1445 326.119 79.5854C312.999 116.437 282.644 161.946 257.904 181.592C255.18 179.927 252.4 178.429 249.621 177.042C274.36 157.395 300.879 109.832 309.218 70.3171ZM308.885 69.0961C300.935 108.833 274.305 157.117 249.398 176.931C252.4 178.373 255.347 179.983 258.238 181.759C283.144 161.946 313.944 115.993 327.009 79.0304C321.06 75.3675 315 72.0376 308.885 69.0961Z" fill="#161616"/>
<path d="M279.308 59.1063C285.146 60.6603 290.983 62.6028 296.765 64.8782C291.928 105.892 268.245 154.731 243.561 174.378C240.726 173.268 237.835 172.324 234.999 171.547C259.683 151.901 279.42 101.729 279.308 59.1063Z" fill="black"/>
<path d="M279.308 59.1064C285.146 60.6603 290.983 62.6028 296.765 64.8782C291.928 105.892 268.245 154.731 243.561 174.378C240.726 173.268 237.835 172.324 234.999 171.547C259.683 151.901 279.42 101.73 279.308 59.1064ZM278.752 57.8854C279.308 100.786 259.628 151.623 234.721 171.436C237.779 172.269 240.837 173.268 243.839 174.433C268.745 154.62 292.762 105.226 297.488 64.0458C291.261 61.6593 284.979 59.6058 278.752 57.8854Z" fill="#161616"/>
<path d="M249.287 54.1669C255.069 54.4999 260.851 55.1659 266.688 56.2204C270.358 99.6761 253.512 150.458 228.773 170.104C225.937 169.605 223.046 169.272 220.211 169.105C244.951 149.459 257.849 98.2331 249.287 54.1669Z" fill="black"/>
<path d="M249.287 54.1669C255.069 54.4999 260.851 55.1659 266.688 56.2204C270.358 99.676 253.512 150.458 228.773 170.104C225.937 169.605 223.046 169.272 220.211 169.105C244.951 149.459 257.849 98.233 249.287 54.1669ZM248.509 53.1124C257.626 97.4006 244.895 149.348 219.989 169.161C222.991 169.327 226.049 169.66 229.106 170.215C254.013 150.402 271.08 98.9545 267.189 55.3324C260.906 54.1114 254.68 53.3899 248.509 53.1124Z" fill="#161616"/>
<path d="M220.1 56.0539C225.604 54.9994 231.219 54.3889 236.889 54.1115C248.954 98.1776 238.891 149.459 214.151 169.105C211.371 169.216 208.592 169.549 205.923 170.049C230.663 150.402 236.889 99.5651 220.1 56.0539Z" fill="black"/>
<path d="M220.1 56.0539C225.604 54.9994 231.219 54.3889 236.89 54.1114C248.954 98.1776 238.891 149.459 214.151 169.105C211.371 169.216 208.592 169.549 205.923 170.049C230.663 150.402 236.889 99.565 220.1 56.0539ZM219.155 55.1104C236.612 98.8436 230.607 150.291 205.701 170.104C208.592 169.549 211.483 169.216 214.485 169.105C239.391 149.292 249.565 97.3451 237.167 53.0569C231.052 53.2789 225.048 53.9449 219.155 55.1104Z" fill="#161616"/>
<path d="M192.858 65.1557C194.081 64.5452 195.249 63.9902 196.528 63.4352C200.419 61.7148 204.367 60.2163 208.425 58.9398C228.495 101.618 224.937 151.79 200.253 171.436C198.251 172.047 196.305 172.768 194.415 173.656C193.804 173.934 193.192 174.211 192.636 174.489C217.32 154.842 217.32 106.114 192.858 65.1557Z" fill="black"/>
<path d="M192.858 65.1557C194.081 64.5452 195.249 63.9902 196.528 63.4352C200.419 61.7148 204.367 60.2163 208.425 58.9398C228.495 101.619 224.937 151.79 200.253 171.436C198.251 172.047 196.305 172.768 194.415 173.656C193.804 173.934 193.192 174.211 192.636 174.489C217.32 154.842 217.32 106.114 192.858 65.1557ZM191.802 64.3787C216.987 105.448 217.265 154.786 192.358 174.6C193.025 174.267 193.692 173.934 194.359 173.656C196.361 172.768 198.362 171.991 200.419 171.381C225.326 151.568 228.884 100.731 208.369 57.7744C204.144 59.0508 199.975 60.6048 195.861 62.4363C194.526 63.0468 193.136 63.7127 191.802 64.3787Z" fill="#161616"/>
<path d="M175.402 76.2C177.681 74.3685 180.127 72.6481 182.629 70.9831C209.982 110.276 212.317 157.728 187.577 177.375C186.354 178.152 185.186 179.039 184.019 179.927C208.759 160.281 204.811 114.05 175.402 76.2Z" fill="black"/>
<path d="M175.402 76.2C177.681 74.3686 180.127 72.6481 182.629 70.9831C209.982 110.276 212.317 157.728 187.577 177.375C186.354 178.152 185.186 179.04 184.019 179.928C208.759 160.281 204.811 114.05 175.402 76.2ZM174.734 75.312C204.756 113.329 208.981 160.114 184.074 179.928C185.298 178.984 186.521 178.096 187.799 177.208C212.706 157.395 210.26 109.277 182.407 69.7621C179.738 71.4826 177.181 73.3696 174.734 75.312Z" fill="#161616"/>
<path d="M415.516 120.932C420.63 128.48 427.357 138.581 432.083 146.351C430.526 143.687 419.908 146.351 401.172 154.842C397.447 148.515 393.5 142.41 389.275 136.583C406.009 125.372 414.904 120.1 415.516 120.932Z" fill="black"/>
<path d="M415.516 120.932C420.63 128.48 427.357 138.581 432.083 146.351C430.526 143.687 419.908 146.351 401.172 154.842C397.447 148.515 393.5 142.41 389.275 136.583C406.009 125.372 414.904 120.1 415.516 120.932ZM414.904 120.155C414.404 119.378 405.509 124.706 388.83 136.028C393.278 142.133 397.447 148.515 401.339 155.23C420.13 146.795 430.749 144.186 432.305 146.906C427.302 138.747 420.352 128.036 414.904 120.155Z" fill="#161616"/>
<path d="M382.492 82.3604L386.106 86.0233C390.998 91.3512 397.614 98.4551 402.284 104.005C402.618 104.338 395.001 111.275 379.768 124.429C375.209 118.99 370.484 113.773 365.536 108.889C378.656 92.9607 383.771 85.0799 382.492 82.3604Z" fill="black"/>
<path d="M382.492 82.3604L386.106 86.0233C390.998 91.3512 397.614 98.4551 402.284 104.005C402.618 104.338 395.001 111.275 379.768 124.429C375.209 118.99 370.484 113.773 365.536 108.889C378.656 92.9607 383.771 85.0798 382.492 82.3604ZM381.825 81.6944C383.66 83.4704 378.1 92.6832 365.036 108.389C370.317 113.606 375.376 119.101 380.213 124.928C395.557 111.886 403.229 105.004 402.951 104.726C397.948 99.0656 391.332 91.4622 386.162 86.0233L381.825 81.6944Z" fill="#161616"/>
<path d="M344.632 50.3375L358.698 60.9933L367.204 68.0972C370.206 70.6501 366.147 81.2504 354.584 98.6216C349.413 94.1262 344.076 89.9083 338.628 86.0233C347.857 66.2657 349.525 53.7785 344.632 50.3375Z" fill="black"/>
<path d="M344.632 50.3375L358.698 60.9933L367.204 68.0972C370.206 70.6501 366.147 81.2504 354.584 98.6216C349.413 94.1261 344.076 89.9082 338.628 86.0233C347.857 66.2657 349.525 53.7784 344.632 50.3375ZM343.854 49.838C348.802 53.2789 347.245 65.8217 338.072 85.7458C343.91 89.8527 349.58 94.3481 355.084 99.1211C366.703 81.8054 370.817 71.2606 367.871 68.7631L358.642 61.0488C354.25 57.6634 348.413 53.057 343.854 49.838Z" fill="#161616"/>
<path d="M302.547 25.363C310.108 29.3034 320.171 34.6868 327.509 39.0157C333.847 42.9006 334.069 56.6644 326.675 78.1425C321.06 74.7015 315.334 71.5936 309.552 68.7631C314.333 44.8986 311.22 29.5254 302.547 25.363Z" fill="black"/>
<path d="M302.547 25.363C310.108 29.3034 320.171 34.6868 327.509 39.0157C333.847 42.9006 334.069 56.6644 326.675 78.1425C321.06 74.7015 315.334 71.5936 309.552 68.7631C314.333 44.8986 311.22 29.5254 302.547 25.363ZM301.713 24.9745C310.441 29.1369 313.666 44.5656 308.94 68.5411C315.111 71.4826 321.171 74.8125 327.176 78.4754C334.681 57.0529 334.57 43.3446 328.287 39.5152C320.449 34.9643 309.83 29.0814 301.713 24.9745Z" fill="#161616"/>
<path d="M256.792 8.26935L262.519 9.87882C268.912 11.9878 277.418 14.7627 283.756 17.1492C294.208 21.2006 299.656 37.6283 296.932 63.2688C291.094 60.9933 285.201 58.9954 279.253 57.4414C278.864 29.4699 269.913 11.7658 256.792 8.26935Z" fill="black"/>
<path d="M256.792 8.2693L262.519 9.87877C268.912 11.9877 277.418 14.7627 283.756 17.1491C294.208 21.2005 299.656 37.6282 296.932 63.2687C291.094 60.9933 285.201 58.9953 279.253 57.4413C278.864 29.4699 269.913 11.7657 256.792 8.2693ZM255.903 8.0473C269.079 11.5437 278.196 29.3034 278.697 57.3303C284.979 58.9953 291.261 61.1043 297.488 63.5462C300.323 38.0167 294.986 21.6445 284.59 17.5376C277.974 15.1512 269.19 11.9877 262.519 9.87877L255.903 8.0473Z" fill="#161616"/>
<path d="M208.036 0.333008C213.651 0.832498 221.156 1.38749 226.771 2.10897L236.723 3.71844C253.29 7.99186 263.297 25.0855 266.577 54.5555C260.684 53.501 254.791 52.7795 248.954 52.4465C242.282 20.5346 225.993 1.22099 208.036 0.333008Z" fill="black"/>
<path d="M208.036 0.333008C213.651 0.832498 221.156 1.38749 226.771 2.10897L236.723 3.71844C253.29 7.99186 263.297 25.0855 266.577 54.5555C260.684 53.501 254.791 52.7795 248.954 52.4465C242.282 20.5346 225.993 1.22099 208.036 0.333008ZM207.091 0.333008C232.275 3.27445 243.45 30.3024 248.342 52.4465C254.569 52.7795 260.795 53.501 267.078 54.6665C264.298 25.0855 252.623 6.60439 237.612 3.88494L226.771 2.10897C220.823 1.55398 212.984 0.666001 207.091 0.333008Z" fill="#161616"/>
<path d="M157.389 3.71841C166.228 2.38644 178.126 0.943467 187.021 0.27748C206.924 -0.610502 226.771 18.9806 236.445 52.4465C230.718 52.724 225.048 53.3344 219.488 54.3889C196.416 1.05447 166.117 2.10894 157.389 3.71841Z" fill="black"/>
<path d="M157.389 3.71841C166.229 2.38644 178.126 0.943468 187.021 0.277481C206.924 -0.610502 226.771 18.9806 236.445 52.4465C230.718 52.724 225.048 53.3344 219.488 54.3889C196.416 1.05447 166.117 2.10895 157.389 3.71841ZM156.444 3.88491C178.96 -0.555003 204.533 18.9806 218.932 54.4999C224.825 53.3344 230.885 52.6685 237.001 52.391C227.494 18.9806 207.813 -0.555003 188.022 0.221982C167.396 1.77595 167.007 1.83145 156.444 3.88491Z" fill="#161616"/>
<path d="M107.076 20.5901L113.969 17.3156C120.53 14.7072 129.314 11.2107 136.041 8.99078C159.946 1.55393 189.745 20.6456 207.647 57.2748C203.533 58.5513 199.53 60.0498 195.638 61.8257C194.415 62.3807 193.192 62.9357 191.969 63.5462C168.619 25.807 132.26 8.0473 107.076 20.5901Z" fill="black"/>
<path d="M107.076 20.5901L113.969 17.3157C120.53 14.7072 129.314 11.2108 136.041 8.99084C159.946 1.55398 189.745 20.6456 207.647 57.2749C203.533 58.5514 199.53 60.0499 195.638 61.8258C194.415 62.3808 193.192 62.9358 191.969 63.5463C168.619 25.807 132.26 8.04735 107.076 20.5901ZM106.186 21.0341C131.426 8.32485 168.008 26.029 191.469 63.8238C192.858 63.1578 194.248 62.4918 195.638 61.8258C199.752 59.9944 203.922 58.4404 208.203 57.1639C190.523 20.5346 160.891 1.44298 137.041 8.71334C130.092 11.1553 120.808 14.4852 114.025 17.3157L106.186 21.0341Z" fill="#161616"/>
<path d="M63.2669 50.726L73.6631 41.7907C77.8327 38.7382 83.281 34.5758 87.5618 31.7454C112.969 15.0957 154.276 31.3569 181.573 69.4846C179.071 71.1496 176.625 72.8701 174.29 74.757C172.4 76.2555 170.565 77.8095 168.841 79.4189C136.874 42.6786 90.4528 28.9704 65.4351 48.839C64.6568 49.4495 63.934 50.06 63.2669 50.726Z" fill="black"/>
<path d="M63.2669 50.726L73.6631 41.7907C77.8327 38.7382 83.281 34.5758 87.5618 31.7454C112.969 15.0957 154.276 31.3569 181.573 69.4846C179.071 71.1496 176.625 72.8701 174.29 74.757C172.4 76.2555 170.565 77.8095 168.841 79.419C136.874 42.6787 90.4528 28.9704 65.4351 48.8391C64.6568 49.4495 63.934 50.06 63.2669 50.726ZM62.5442 51.392C63.2669 50.726 64.0452 50.06 64.8236 49.4495C89.8968 29.5254 136.374 43.1782 168.452 79.8074C170.343 78.087 172.288 76.3665 174.29 74.757C176.736 72.8146 179.349 70.9276 182.017 69.2072C154.887 31.0794 113.747 14.7627 88.3958 31.1904C83.9482 34.3538 77.9439 38.4053 73.6631 41.7907L62.5442 51.392Z" fill="#161616"/>
<path d="M30.5771 90.4632C34.9691 83.9143 41.029 75.312 45.8657 69.0961L48.0895 66.4322C49.6462 64.6562 51.3696 62.9358 53.3154 61.4373C78.3887 41.5132 126.589 53.3344 160.836 87.7438C157.389 91.7952 154.22 96.1241 151.44 100.675C105.741 64.6007 51.5364 60.0498 30.5771 90.4632Z" fill="black"/>
<path d="M30.5772 90.4633C34.9691 83.9144 41.029 75.3121 45.8657 69.0962L48.0895 66.4322C49.6462 64.6563 51.3696 62.9358 53.3154 61.4373C78.3887 41.5132 126.589 53.3345 160.836 87.7438C157.389 91.7952 154.22 96.1242 151.44 100.675C105.741 64.6008 51.5364 60.0499 30.5772 90.4633ZM30.0768 91.2957C32.245 87.7438 35.0803 84.5249 38.6384 81.6944C63.7117 61.7703 114.136 70.4837 151.162 101.064C154.109 96.1797 157.445 91.5732 161.169 87.2998C127.034 52.7795 78.8335 40.9027 53.8158 60.8268C51.9256 62.3253 50.2577 63.9348 48.7567 65.7107L45.8657 69.0962C40.9178 75.5896 34.58 84.4694 30.0768 91.2957Z" fill="#161616"/>
<path d="M10.0071 136.083L10.3406 134.973C13.176 127.093 17.1788 116.714 20.5145 109.055C22.7383 104.393 26.074 100.176 30.6327 96.5681C55.706 76.644 107.354 83.0819 145.881 110.942C143.546 115.826 141.544 120.988 139.932 126.316C99.7371 102.784 46.6441 99.8981 21.5708 119.822C15.6777 124.484 11.8417 130.034 10.0071 136.083Z" fill="black"/>
<path d="M10.0071 136.083L10.3406 134.973C13.176 127.093 17.1788 116.714 20.5145 109.055C22.7383 104.393 26.074 100.176 30.6327 96.5681C55.706 76.644 107.354 83.0819 145.881 110.942C143.546 115.826 141.544 120.988 139.932 126.316C99.7371 102.784 46.6441 99.898 21.5708 119.822C15.6777 124.484 11.8417 130.034 10.0071 136.083ZM9.7291 136.971C11.5637 130.922 15.4554 125.317 21.3484 120.599C46.4217 100.675 99.5147 103.45 139.765 126.76C141.489 121.099 143.601 115.604 146.103 110.387C107.687 82.4159 56.0396 75.867 30.9663 95.7911C26.4631 99.3431 23.1274 103.561 20.9037 108.167C17.4568 116.104 13.176 126.76 10.3406 134.918L9.7291 136.971Z" fill="#161616"/>
<path d="M0.778328 184.256L2.27939 170.77L4.83675 156.007C6.28222 149.292 10.2294 143.021 17.012 137.637C42.0853 117.713 95.8455 117.88 136.874 138.026C135.707 143.576 134.873 149.348 134.428 155.23C92.6766 139.968 38.3604 143.798 13.2872 163.722C5.44829 169.938 1.38987 176.986 0.778328 184.256Z" fill="black"/>
<path d="M0.778327 184.256L2.27939 170.77L4.83675 156.007C6.28221 149.292 10.2294 143.021 17.012 137.637C42.0853 117.713 95.8455 117.88 136.874 138.026C135.707 143.576 134.873 149.348 134.428 155.231C92.6766 139.968 38.3604 143.798 13.2872 163.722C5.44829 169.938 1.38987 176.986 0.778327 184.256ZM0.722733 185.144C1.27868 177.874 5.3371 170.77 13.2316 164.554C38.3048 144.63 92.621 140.69 134.373 155.786C134.817 149.514 135.707 143.409 136.986 137.471C95.9566 117.214 42.1965 116.881 17.1788 136.805C10.4518 142.133 6.50459 148.404 5.05913 155.064C4.22521 159.781 2.94653 165.997 2.33498 170.715L0.722733 185.144Z" fill="#161616"/>
<path d="M1.89022 233.206C1.22309 225.381 0.389165 215.003 0.111191 207.177V204.846C2.61296 171.714 72.718 152.511 134.039 168.162C134.095 174.211 134.484 180.371 135.207 186.587C93.6773 180.26 39.4723 191.305 14.4547 211.173C5.05913 218.61 1.0563 226.214 1.89022 233.206Z" fill="black"/>
<path d="M1.89022 233.206C1.22309 225.381 0.389164 215.003 0.11119 207.177V204.847C2.61296 171.714 72.718 152.511 134.039 168.162C134.095 174.211 134.484 180.372 135.207 186.587C93.6773 180.261 39.4723 191.305 14.4547 211.173C5.05913 218.61 1.0563 226.214 1.89022 233.206ZM2.00141 234.15C1.16749 227.213 5.17032 219.554 14.5102 212.117C39.5835 192.193 93.7328 181.037 135.207 187.198C134.373 180.538 133.983 173.989 133.928 167.551C72.2177 151.79 2.1126 170.826 0.0555954 203.848L0.11119 207.122C0.500354 215.28 1.16749 226.047 2.00141 234.15Z" fill="#161616"/>
<path d="M12.342 281.657L11.7305 279.604C9.6179 271.834 6.89376 261.455 5.17032 253.575C2.66855 226.436 74.3303 197.465 137.319 200.185C138.598 206.511 140.21 212.894 142.212 219.332C74.6082 225.548 7.06054 261.788 12.342 281.657Z" fill="black"/>
<path d="M12.3421 281.657L11.7305 279.604C9.61791 271.834 6.89376 261.455 5.17032 253.575C2.66855 226.436 74.3303 197.465 137.319 200.185C138.598 206.511 140.21 212.894 142.212 219.332C74.6082 225.548 7.06054 261.788 12.3421 281.657ZM12.62 282.545C10.9522 277.162 14.955 269.947 25.4068 261.677C50.4801 241.753 102.962 223.05 142.378 219.887C140.21 213.06 138.487 206.289 137.152 199.519C96.179 196.855 42.53 210.896 17.4568 230.82C7.67209 238.645 3.72485 246.193 4.94794 252.687C6.83816 260.789 9.39553 271.612 11.6749 279.604L12.62 282.545Z" fill="#161616"/>
<path d="M31.8002 328.831L25.0733 314.956L19.4026 301.581C17.6792 297.086 21.8488 290.259 32.5786 281.768C57.6518 261.844 109.021 240.033 147.159 233.151C149.717 239.589 152.608 245.971 155.888 252.354C120.252 264.674 70.8834 290.925 45.8101 310.849C34.7468 319.674 30.2436 325.779 31.8002 328.831Z" fill="black"/>
<path d="M31.8002 328.831L25.0733 314.956L19.4026 301.581C17.6792 297.086 21.8488 290.259 32.5786 281.768C57.6518 261.844 109.021 240.033 147.159 233.151C149.717 239.589 152.608 245.971 155.888 252.354C120.252 264.674 70.8834 290.925 45.8101 310.849C34.7468 319.674 30.2436 325.779 31.8002 328.831ZM32.245 329.664C29.1317 317.176 99.7927 273.443 156.221 252.964C152.719 246.193 149.606 239.367 146.937 232.485C80.7793 245.139 14.2879 283.932 19.069 300.638L25.0733 314.901L32.245 329.664Z" fill="#161616"/>
<path d="M59.4865 373.064C54.2605 365.627 47.4224 355.693 42.5856 348.034C41.4181 346.147 46.2549 340.597 57.5406 331.662C82.6139 311.737 130.203 282.323 163.671 266.117C167.452 272.389 171.51 278.383 175.846 284.099C145.825 305.466 101.071 338.987 75.9981 358.912C64.5456 367.958 59.1529 372.62 59.4865 373.064Z" fill="black"/>
<path d="M59.4865 373.064C54.2605 365.627 47.4224 355.693 42.5856 348.034C41.4181 346.147 46.2549 340.597 57.5406 331.662C82.6139 311.737 130.203 282.323 163.671 266.117C167.452 272.389 171.51 278.383 175.846 284.099C145.825 305.466 101.071 338.987 75.9981 358.912C64.5456 367.958 59.1529 372.62 59.4865 373.064ZM60.0424 373.841C59.7644 373.452 65.1571 368.79 76.4985 359.744C101.572 339.82 146.27 306.132 176.124 284.654C171.51 278.549 167.229 272.167 163.171 265.507C129.592 281.546 81.9468 310.849 56.8735 330.718C45.6989 339.653 40.8622 345.203 42.0297 347.201C47.3112 355.304 54.4273 366.015 60.0424 373.841Z" fill="#161616"/>
<path d="M92.9545 411.025L85.9496 404.032C82.0024 399.759 76.6653 394.153 72.8848 389.713C73.3296 390.213 79.167 386.05 90.5084 377.06C115.582 357.136 158.112 320.839 185.409 296.087C190.023 301.47 194.86 306.576 199.863 311.349C176.68 340.43 137.43 380.279 112.413 400.203C101.127 409.194 94.6224 412.579 92.9545 411.025Z" fill="black"/>
<path d="M92.9545 411.025L85.9496 404.032C82.0024 399.759 76.6653 394.153 72.8848 389.713C73.3296 390.213 79.167 386.05 90.5084 377.06C115.582 357.136 158.112 320.839 185.409 296.087C190.023 301.47 194.86 306.576 199.863 311.349C176.68 340.43 137.43 380.279 112.413 400.203C101.127 409.194 94.6224 412.579 92.9545 411.025ZM93.6217 411.691C95.3451 413.3 101.85 409.86 113.08 400.98C138.153 381.056 177.236 341.096 200.308 311.904C194.971 306.798 189.856 301.359 184.964 295.643C157.556 320.229 114.914 356.47 89.8412 376.394C78.4999 385.44 72.6624 389.547 72.2733 389.103C76.3873 393.598 81.7244 399.759 85.9496 404.143L93.6217 411.691Z" fill="#161616"/>
<path d="M131.259 442.382C125.867 438.441 118.639 433.225 113.358 429.062L108.41 425.011C111.023 427.175 117.972 424.178 129.091 415.354C154.164 395.43 190.801 353.306 210.871 321.339C216.097 325.723 221.49 329.83 226.994 333.604C211.538 369.068 178.571 414.022 153.497 433.946C142.768 442.493 135.207 445.046 131.259 442.382Z" fill="black"/>
<path d="M131.259 442.382C125.867 438.441 118.639 433.225 113.358 429.062L108.41 425.011C111.023 427.175 117.972 424.178 129.091 415.354C154.164 395.43 190.801 353.306 210.871 321.339C216.097 325.723 221.49 329.83 226.994 333.604C211.538 369.068 178.571 414.022 153.497 433.946C142.768 442.493 135.207 445.046 131.259 442.382ZM132.038 442.937C135.985 445.601 143.601 443.048 154.331 434.557C179.404 414.632 212.205 369.567 227.55 334.048C221.712 330.052 215.986 325.668 210.426 320.95C190.245 352.751 153.442 394.819 128.368 414.743C117.249 423.568 110.3 426.565 107.743 424.456L113.413 429.118C118.917 433.28 126.256 438.941 132.038 442.937Z" fill="#161616"/>
<path d="M173.678 466.635C166.062 462.805 155.943 457.644 148.549 453.426C153.386 456.257 161.281 453.926 171.732 445.601C196.806 425.677 226.938 378.891 239.002 341.318C244.673 344.648 250.399 347.701 256.181 350.365C249.009 390.546 222.824 439.385 197.751 459.309C187.911 467.19 179.627 469.41 173.678 466.635Z" fill="black"/>
<path d="M173.678 466.635C166.062 462.806 155.943 457.644 148.549 453.426C153.386 456.257 161.281 453.926 171.732 445.601C196.806 425.677 226.938 378.891 239.002 341.318C244.673 344.648 250.399 347.701 256.181 350.365C249.009 390.546 222.824 439.385 197.751 459.309C187.91 467.19 179.627 469.41 173.678 466.635ZM174.512 467.023C180.461 469.743 188.744 467.578 198.64 459.698C223.714 439.773 249.788 390.879 256.792 350.642C250.621 347.812 244.506 344.593 238.502 341.041C226.271 378.503 195.972 425.233 170.954 445.157C160.502 453.482 152.552 455.813 147.771 452.982C155.721 457.367 166.34 463.139 174.512 467.023Z" fill="#161616"/>
<path d="M219.766 483.007L209.481 480.177C204.422 478.512 197.64 476.403 192.636 474.516C199.196 476.902 207.535 474.738 216.931 467.245C242.004 447.321 265.298 397.261 268.857 355.582C274.75 357.746 280.643 359.633 286.536 361.076C287.981 404.31 268.745 455.646 243.728 475.57C235.11 482.508 226.882 484.728 219.766 483.007Z" fill="black"/>
<path d="M219.766 483.007L209.481 480.177C204.422 478.512 197.64 476.403 192.636 474.516C199.196 476.902 207.535 474.738 216.931 467.245C242.004 447.321 265.298 397.261 268.857 355.582C274.75 357.746 280.643 359.633 286.536 361.076C287.981 404.31 268.745 455.646 243.728 475.57C235.11 482.508 226.882 484.728 219.766 483.007ZM220.656 483.229C227.772 484.95 235.944 482.674 244.562 475.848C269.635 455.924 288.704 404.532 287.092 361.298C280.809 359.744 274.527 357.802 268.245 355.415C264.52 396.984 241.059 447.044 216.041 466.968C206.59 474.46 198.251 476.625 191.747 474.238C197.084 476.07 204.089 478.567 209.481 480.177L220.656 483.229Z" fill="#161616"/>
<path d="M268.801 489.889C261.74 489.389 252.345 488.723 245.284 487.891L239.947 487.114C247.175 488.28 255.069 485.893 263.019 479.622C288.092 459.698 304.326 407.751 299.267 363.795C305.16 364.739 311.053 365.294 316.835 365.516C330.233 432.559 301.157 490.943 268.801 489.889Z" fill="black"/>
<path d="M268.801 489.889C261.74 489.389 252.345 488.723 245.284 487.891L239.947 487.114C247.175 488.28 255.069 485.893 263.019 479.622C288.092 459.698 304.326 407.751 299.267 363.795C305.16 364.739 311.053 365.294 316.835 365.516C330.233 432.559 301.157 490.943 268.801 489.889ZM269.746 489.944C309.663 488.058 329.288 419.96 317.446 365.516C311.275 365.349 304.993 364.739 298.711 363.684C303.603 407.64 287.203 459.587 262.185 479.455C254.18 485.782 246.285 488.113 239.058 486.948L245.34 487.891C252.623 488.668 262.408 489.944 269.746 489.944Z" fill="#161616"/>
<path d="M319.503 485.394C310.664 486.948 298.822 488.668 289.927 489.556C296.265 489.112 302.603 486.615 308.551 481.897C333.625 461.973 342.909 409.693 329.344 365.294C335.07 364.905 340.685 364.128 346.245 362.907C370.206 424.456 351.915 478.29 319.503 485.394Z" fill="black"/>
<path d="M319.503 485.394C310.664 486.948 298.822 488.668 289.927 489.556C296.265 489.112 302.603 486.615 308.551 481.897C333.625 461.973 342.909 409.693 329.344 365.294C335.07 364.905 340.685 364.128 346.245 362.907C370.206 424.456 351.915 478.29 319.503 485.394ZM320.449 485.172C356.585 474.682 368.872 417.463 346.745 362.796C340.852 364.073 334.848 364.905 328.788 365.294C342.242 409.693 332.791 462.028 307.717 481.897C301.713 486.67 295.375 489.167 288.982 489.556C306.883 487.78 312.276 487.281 320.449 485.172Z" fill="#161616"/>
<path d="M369.594 467.134L358.142 472.74C352.971 474.793 346.133 477.679 340.907 479.511C344.799 478.179 348.468 476.181 351.971 473.406C377.044 453.482 379.713 402.478 358.031 359.688C361.2 358.634 364.368 357.413 367.426 356.026C369.539 355.082 371.54 354.083 373.542 353.029C399.671 393.931 400.505 443.436 375.487 463.305C373.542 464.803 371.596 466.08 369.594 467.134Z" fill="black"/>
<path d="M369.594 467.134L358.142 472.74C352.972 474.793 346.133 477.679 340.907 479.511C344.799 478.179 348.468 476.181 351.971 473.406C377.044 453.482 379.713 402.478 358.031 359.688C361.2 358.634 364.368 357.413 367.426 356.026C369.539 355.082 371.54 354.083 373.542 353.029C399.671 393.931 400.505 443.436 375.487 463.305C373.542 464.803 371.596 466.08 369.594 467.134ZM370.484 466.635C372.43 465.58 374.32 464.359 376.099 462.916C401.172 442.992 400.171 393.598 373.931 352.751C371.818 353.917 369.594 354.971 367.315 355.97C364.09 357.413 360.755 358.69 357.419 359.799C378.99 402.645 376.155 453.704 351.081 473.628C347.579 476.403 343.798 478.456 339.851 479.788C345.355 477.735 352.694 475.071 358.031 472.74L370.484 466.635Z" fill="#161616"/>
<path d="M412.402 435.944C408.233 439.662 402.729 444.768 398.392 448.265L388.719 455.424C389.386 454.98 390.053 454.481 390.72 453.926C415.794 434.002 412.569 385.94 383.604 346.813C385.328 345.592 387.051 344.371 388.663 343.039C391.221 340.985 393.667 338.821 396.002 336.545C427.246 371.399 434.084 414.91 412.402 435.944Z" fill="black"/>
<path d="M412.402 435.944C408.233 439.662 402.729 444.768 398.392 448.265L388.719 455.424C389.386 454.98 390.053 454.481 390.72 453.926C415.794 434.002 412.569 385.94 383.604 346.813C385.328 345.592 387.051 344.371 388.663 343.039C391.221 340.985 393.667 338.821 396.002 336.545C427.246 371.399 434.084 414.91 412.402 435.944ZM413.125 435.223C434.585 414.133 427.635 370.844 396.391 336.212C393.945 338.599 391.388 340.93 388.663 343.039C386.884 344.426 385.05 345.814 383.16 347.09C412.013 386.328 415.127 434.446 390.053 454.37C389.331 454.925 388.608 455.48 387.885 455.979L398.392 448.209C402.896 444.435 408.9 439.329 413.125 435.223Z" fill="#161616"/>
<path d="M443.925 395.43C439.143 402.922 432.416 412.69 427.079 419.849C444.703 398.094 435.419 359.023 403.73 328.11C407.065 324.003 410.123 319.563 412.792 314.901C444.592 340.541 456.545 373.841 443.925 395.43Z" fill="black"/>
<path d="M443.925 395.43C439.144 402.922 432.417 412.69 427.079 419.849C444.703 398.094 435.419 359.023 403.73 328.11C407.065 324.003 410.123 319.563 412.792 314.901C444.592 340.541 456.545 373.841 443.925 395.43ZM444.425 394.597C456.878 373.008 444.814 339.931 413.125 314.457C410.29 319.396 407.065 324.114 403.452 328.498C435.141 359.522 444.369 398.871 426.523 420.571C438.365 404.92 438.81 404.31 444.425 394.597Z" fill="#161616"/>
<path d="M463.438 349.532L461.771 355.138C459.436 361.686 456.267 370.344 453.598 376.727C462.994 355.804 449.651 326.5 418.24 304.523C420.464 299.528 422.354 294.366 423.855 288.983C468.998 315.955 465.551 342.151 463.438 349.532Z" fill="black"/>
<path d="M463.438 349.532L461.771 355.138C459.436 361.686 456.267 370.344 453.598 376.727C462.994 355.804 449.651 326.5 418.24 304.523C420.464 299.528 422.354 294.366 423.855 288.983C468.998 315.955 465.551 342.151 463.438 349.532ZM463.661 348.644C470.165 318.064 438.032 296.364 423.966 288.428C422.354 294.144 420.352 299.694 417.962 304.967C449.428 327.111 462.66 356.581 453.153 377.504C455.877 370.844 459.436 361.853 461.715 355.027L463.661 348.644Z" fill="#161616"/>
<path d="M471.611 301.193C471.11 306.632 470.555 313.902 469.832 319.341L468.164 329.442C471.11 304.19 447.205 286.985 426.635 277.051C427.691 271.445 428.358 265.618 428.747 259.735C465.273 273.388 472.222 289.815 471.611 301.193Z" fill="black"/>
<path d="M471.611 301.193C471.111 306.631 470.555 313.902 469.832 319.341L468.164 329.442C471.11 304.19 447.205 286.985 426.635 277.051C427.691 271.445 428.358 265.618 428.747 259.735C465.273 273.388 472.222 289.815 471.611 301.193ZM471.666 300.249C472.612 284.765 457.212 268.837 428.747 259.124C428.414 265.451 427.635 271.612 426.523 277.55C456.378 291.647 471.444 312.403 467.997 330.33L469.832 319.285C470.388 313.624 471.277 305.965 471.666 300.249Z" fill="#161616"/>
<path d="M469.609 252.187C470.499 260.678 471.555 272.056 471.944 280.603C469.832 261.233 447.427 251.521 428.914 246.748C428.747 240.643 428.247 234.483 427.357 228.212C453.153 231.597 468.053 240.865 469.609 252.187Z" fill="black"/>
<path d="M469.609 252.187C470.499 260.678 471.555 272.056 471.944 280.603C469.832 261.233 447.427 251.521 428.914 246.748C428.747 240.643 428.247 234.483 427.357 228.212C453.153 231.597 468.053 240.865 469.609 252.187ZM469.443 251.299C467.886 240.088 452.987 230.876 427.302 227.601C428.247 234.261 428.803 240.865 428.914 247.359C456.322 254.518 471.611 267.671 471.944 281.546C471.444 272.444 470.61 260.29 469.443 251.299Z" fill="#161616"/>
<path d="M458.212 203.848L460.325 210.452C462.049 216.89 464.439 225.381 465.94 231.874C462.493 221.385 448.706 215.558 424.911 214.559C423.521 208.232 421.742 201.794 419.63 195.412C428.191 194.746 454.098 192.692 458.212 203.848Z" fill="black"/>
<path d="M458.212 203.847L460.325 210.452C462.049 216.89 464.439 225.381 465.94 231.874C462.493 221.385 448.706 215.558 424.911 214.559C423.521 208.232 421.742 201.794 419.63 195.412C428.191 194.746 454.098 192.692 458.212 203.847ZM457.935 202.96C455.6 198.131 449.039 192.082 419.463 194.801C421.742 201.628 423.632 208.454 425.078 215.169C449.706 216.224 464.106 223.106 466.163 232.762C464.495 226.047 462.326 217.056 460.381 210.452L457.935 202.96Z" fill="#161616"/>
<path d="M437.976 156.84C440.7 162.334 444.481 169.549 446.982 175.099L450.818 183.979C448.539 178.374 435.919 177.097 414.459 181.537C411.791 175.099 408.789 168.717 405.342 162.334C424.911 155.009 436.141 153.399 437.976 156.84Z" fill="black"/>
<path d="M437.976 156.84C440.7 162.334 444.481 169.549 446.982 175.099L450.818 183.979C448.539 178.374 435.919 177.097 414.459 181.537C411.791 175.099 408.789 168.717 405.342 162.334C424.911 155.008 436.141 153.399 437.976 156.84ZM437.476 156.007C435.697 152.622 424.522 154.287 405.008 161.724C408.678 168.495 411.902 175.321 414.737 182.147C423.577 180.538 447.038 176.209 451.208 184.867L446.982 175.099C444.147 169.383 440.533 161.613 437.476 156.007Z" fill="#161616"/>
<path d="M170.009 80.8619C171.732 79.2524 173.567 77.6985 175.402 76.2555C204.811 114.106 208.759 160.336 184.019 179.983L183.518 180.427C205.756 159.837 200.03 116.27 170.009 80.8619Z" fill="black"/>
<path d="M170.009 80.8619C171.732 79.2524 173.567 77.6985 175.402 76.2555C204.811 114.106 208.759 160.336 184.019 179.983L183.519 180.427C205.756 159.837 200.03 116.27 170.009 80.8619ZM168.897 80.3069C199.585 115.715 205.756 159.67 183.463 180.427L184.019 179.927C208.925 160.114 204.756 113.273 174.679 75.312C172.678 76.9215 170.787 78.5864 168.897 80.3069Z" fill="#161616"/>
<path d="M152.83 101.841C155.61 97.3451 158.723 93.0162 162.114 89.0203C192.692 120.544 200.975 159.837 182.685 181.204L182.573 181.37C182.184 181.87 181.739 182.536 181.406 183.035C194.582 161.668 183.574 128.147 152.83 101.841Z" fill="black"/>
<path d="M152.83 101.84C155.61 97.3451 158.723 93.0162 162.114 89.0202C192.692 120.544 200.975 159.837 182.685 181.204L182.573 181.37C182.184 181.87 181.739 182.536 181.406 183.035C194.582 161.668 183.574 128.147 152.83 101.84ZM151.663 101.563C183.018 127.814 194.471 161.557 181.295 183.146C181.628 182.591 182.129 181.925 182.518 181.37L182.685 181.148C201.309 159.67 192.803 119.656 161.614 87.7993C157.945 92.0727 154.609 96.6791 151.663 101.563Z" fill="#161616"/>
<path d="M141.433 127.148C143.045 121.876 145.047 116.825 147.326 111.941C177.792 134.585 190.301 164.166 180.35 184.978C179.905 186.032 179.349 187.42 179.015 188.474L178.96 188.641C184.964 169.383 171.121 145.019 141.433 127.148Z" fill="black"/>
<path d="M141.433 127.148C143.045 121.876 145.047 116.825 147.326 111.941C177.792 134.585 190.301 164.166 180.35 184.978C179.905 186.032 179.349 187.42 179.015 188.474L178.96 188.641C184.964 169.383 171.121 145.019 141.433 127.148ZM140.321 127.092C170.62 144.852 184.853 169.383 178.904 188.807L179.015 188.474C179.404 187.364 179.96 185.921 180.405 184.867C190.579 163.833 177.792 133.697 146.659 110.831C144.157 116.048 142.045 121.487 140.321 127.092Z" fill="#161616"/>
<path d="M135.985 155.841C136.43 150.014 137.264 144.353 138.375 138.858C167.34 153.51 181.795 174.433 177.959 192.304L177.459 195.245L177.125 198.464C178.459 182.813 163.671 166.33 135.985 155.841Z" fill="black"/>
<path d="M135.985 155.841C136.43 150.014 137.264 144.353 138.376 138.858C167.34 153.51 181.795 174.433 177.959 192.304L177.459 195.245L177.125 198.464C178.459 182.813 163.671 166.33 135.985 155.841ZM134.984 156.007C163.226 166.386 178.404 182.869 177.181 198.631L177.57 195.19C177.737 194.246 177.903 193.025 178.126 192.082C182.073 173.934 167.285 152.622 137.653 137.748C136.319 143.687 135.429 149.792 134.984 156.007Z" fill="#161616"/>
<path d="M136.708 186.809C135.985 180.649 135.596 174.544 135.54 168.55C162.17 176.265 176.903 189.751 177.014 203.626V204.236C177.125 206.622 177.347 209.73 177.57 212.117C176.236 200.684 161.781 190.972 136.708 186.809Z" fill="black"/>
<path d="M136.708 186.809C135.985 180.649 135.596 174.544 135.54 168.55C162.17 176.265 176.903 189.751 177.014 203.626V204.236C177.125 206.622 177.347 209.73 177.57 212.117C176.236 200.684 161.781 190.972 136.708 186.809ZM135.818 187.253C161.447 191.194 176.18 200.906 177.57 212.45C177.347 210.008 177.069 206.733 176.958 204.292V203.404C176.958 189.251 161.781 175.488 134.539 167.662C134.595 174.1 134.984 180.649 135.818 187.253Z" fill="#161616"/>
<path d="M143.768 219.165C141.767 212.838 140.155 206.511 138.931 200.24C155.332 201.794 174.679 205.29 178.682 218.943C179.349 221.774 180.238 225.548 181.072 228.323L181.295 229.1C178.96 221.718 165.895 217.722 143.768 219.165Z" fill="black"/>
<path d="M143.768 219.165C141.767 212.838 140.155 206.511 138.931 200.24C155.332 201.794 174.679 205.29 178.682 218.943C179.349 221.774 180.238 225.548 181.072 228.323L181.295 229.1C178.96 221.718 165.895 217.722 143.768 219.165ZM142.99 219.887C165.673 218.166 179.015 222.051 181.35 229.488L181.017 228.378C180.238 225.492 179.182 221.607 178.571 218.666C176.625 208.676 162.337 201.295 137.764 199.63C139.154 206.289 140.877 213.06 142.99 219.887Z" fill="#161616"/>
<path d="M157.278 251.91C153.998 245.583 151.162 239.256 148.605 232.873C169.509 229.266 181.795 231.098 184.074 236.925L186.354 242.308L189.189 248.136C187.299 244.473 176.291 245.472 157.278 251.91Z" fill="black"/>
<path d="M157.278 251.91C153.998 245.583 151.162 239.256 148.605 232.873C169.509 229.266 181.795 231.098 184.074 236.925L186.354 242.308L189.189 248.136C187.299 244.473 176.291 245.472 157.278 251.91ZM156.722 252.798C164.06 250.356 186.354 242.808 189.356 248.524L186.354 242.364L183.908 236.592C182.462 234.039 178.571 227.268 147.437 232.429C150.162 239.256 153.219 246.027 156.722 252.798Z" fill="#161616"/>
<path d="M176.903 283.266C172.678 277.606 168.619 271.667 164.894 265.451C182.518 256.96 192.414 254.074 193.804 256.349C195.972 259.679 198.863 264.064 201.198 267.283C200.808 266.783 192.525 272.167 176.903 283.266Z" fill="black"/>
<path d="M176.903 283.266C172.677 277.606 168.619 271.667 164.894 265.451C182.518 256.96 192.414 254.074 193.804 256.35C195.972 259.679 198.863 264.064 201.198 267.283C200.808 266.783 192.525 272.167 176.903 283.266ZM176.625 284.321C192.692 272.777 201.086 267.172 201.476 267.671C199.029 264.23 195.861 259.568 193.581 256.017C192.191 253.63 181.906 256.571 163.727 265.229C167.73 271.889 172.01 278.272 176.625 284.321Z" fill="#161616"/>
<path d="M200.697 310.294C195.749 305.522 190.968 300.471 186.409 295.199C200.642 282.268 207.591 275.275 207.035 274.72C208.759 276.607 210.982 279.16 212.761 280.991L215.819 283.988C217.821 285.819 212.817 294.921 200.697 310.294Z" fill="black"/>
<path d="M200.697 310.294C195.749 305.522 190.968 300.471 186.409 295.199C200.642 282.268 207.591 275.275 207.035 274.72C208.759 276.607 210.982 279.16 212.761 280.991L215.819 283.988C217.821 285.819 212.817 294.921 200.697 310.294ZM200.642 311.404C213.095 295.532 218.21 286.152 216.097 284.21L212.761 280.936C210.982 278.938 208.481 276.385 206.757 274.331C207.257 274.886 200.03 281.99 185.298 295.199C190.19 300.915 195.305 306.354 200.642 311.404Z" fill="#161616"/>
<path d="M227.55 332.272C222.101 328.498 216.764 324.447 211.594 320.118C222.157 303.024 225.604 292.59 222.435 289.926L224.547 291.647C226.716 293.312 229.607 295.532 231.83 297.086C236.945 300.582 235.889 312.847 227.55 332.272Z" fill="black"/>
<path d="M227.55 332.272C222.101 328.498 216.764 324.447 211.594 320.118C222.157 303.024 225.604 292.59 222.435 289.926L224.547 291.647C226.716 293.312 229.607 295.532 231.83 297.086C236.945 300.582 235.889 312.847 227.55 332.272ZM227.716 333.493C236.278 313.513 237.39 300.86 232.108 297.308C229.829 295.643 226.716 293.423 224.492 291.647L222.101 289.649C225.27 292.313 221.657 302.969 210.593 320.451C216.208 325.168 221.879 329.497 227.716 333.493Z" fill="#161616"/>
<path d="M256.514 348.866C250.788 346.202 245.118 343.205 239.502 339.931C246.063 318.841 245.284 305.355 238.669 301.47C241.393 302.969 245.118 304.967 247.897 306.354C256.792 310.405 260.406 325.446 256.514 348.866Z" fill="black"/>
<path d="M256.514 348.866C250.788 346.202 245.118 343.205 239.502 339.931C246.063 318.841 245.284 305.355 238.669 301.47C241.393 302.969 245.118 304.967 247.897 306.354C256.792 310.405 260.406 325.446 256.514 348.866ZM256.904 350.087C260.962 326.112 257.293 310.627 248.231 306.521C245.229 305.022 241.282 302.969 238.391 301.359C245.006 305.244 245.618 319.063 238.724 340.541C244.673 344.038 250.733 347.257 256.904 350.087Z" fill="#161616"/>
<path d="M286.48 359.522C280.643 358.079 274.805 356.248 268.968 354.083C270.858 328.998 264.909 312.903 254.235 309.018C255.847 309.573 257.96 310.294 259.572 310.794L262.463 311.571C275.75 314.845 285.201 332.105 286.48 359.522Z" fill="black"/>
<path d="M286.48 359.522C280.643 358.079 274.805 356.248 268.968 354.083C270.858 328.998 264.909 312.903 254.235 309.018C255.847 309.573 257.96 310.294 259.572 310.794L262.463 311.571C275.75 314.845 285.201 332.106 286.48 359.522ZM287.092 360.687C285.924 332.605 276.251 314.901 262.686 311.626L259.572 310.794C257.904 310.239 255.625 309.517 253.957 308.907C264.687 312.903 270.524 329.275 268.356 354.86C274.583 357.191 280.809 359.134 287.092 360.687Z" fill="#161616"/>
<path d="M316.446 363.795C310.719 363.629 304.882 363.018 299.045 362.13C295.32 333.104 282.978 315.123 267.689 312.681L269.023 312.903C270.524 313.069 272.47 313.236 273.971 313.347C299.378 315.789 311.109 342.151 316.446 363.795Z" fill="black"/>
<path d="M316.446 363.795C310.719 363.629 304.882 363.018 299.045 362.13C295.32 333.105 282.978 315.123 267.689 312.681L269.023 312.903C270.524 313.069 272.47 313.236 273.971 313.347C299.378 315.789 311.109 342.151 316.446 363.795ZM317.28 364.85C306.439 323.67 287.926 314.068 274.249 313.291C272.693 313.18 270.636 313.014 269.079 312.847L267.522 312.625C282.866 315.123 295.208 333.493 298.655 363.074C304.882 364.073 311.109 364.683 317.28 364.85Z" fill="#161616"/>
<path d="M345.522 361.242C340.073 362.408 334.458 363.185 328.843 363.573C318.336 330.774 297.933 311.848 277.918 313.236C279.197 313.125 280.865 312.903 282.088 312.681C318.669 307.131 339.851 348.478 345.522 361.242Z" fill="black"/>
<path d="M345.522 361.242C340.073 362.408 334.458 363.185 328.843 363.573C318.336 330.774 297.933 311.848 277.918 313.236C279.197 313.125 280.865 312.903 282.088 312.681C318.669 307.131 339.851 348.478 345.522 361.242ZM346.467 362.186C321.95 309.129 291.039 310.849 282.144 312.681C279.364 313.18 279.364 313.18 277.696 313.291C297.821 312.015 318.28 331.329 328.565 364.739C334.625 364.295 340.629 363.462 346.467 362.186Z" fill="#161616"/>
<path d="M372.43 351.475C370.484 352.529 368.427 353.528 366.37 354.416C363.312 355.804 360.254 356.969 357.086 358.023C338.294 322.227 307.995 303.968 284.145 312.07C284.59 311.904 285.201 311.682 285.646 311.46L286.425 311.071C311.442 297.863 348.246 314.679 372.43 351.475Z" fill="black"/>
<path d="M372.43 351.475C370.484 352.529 368.427 353.528 366.37 354.416C363.312 355.804 360.254 356.969 357.086 358.023C338.294 322.227 307.995 303.968 284.145 312.07C284.59 311.904 285.201 311.682 285.646 311.46L286.425 311.071C311.442 297.863 348.246 314.679 372.43 351.475ZM373.542 352.196C349.191 314.679 311.72 297.585 286.536 311.127L285.702 311.515C285.201 311.682 284.59 311.959 284.09 312.126C308.106 304.079 338.517 322.782 357.141 359.244C360.477 358.135 363.757 356.858 366.981 355.415C369.205 354.416 371.429 353.306 373.542 352.196Z" fill="#161616"/>
<path d="M387.496 341.651C385.884 342.928 384.216 344.204 382.492 345.37C354.25 308.296 312.61 293.09 287.592 310.461L288.037 310.128C312.776 290.481 357.086 304.634 387.496 341.651Z" fill="black"/>
<path d="M387.496 341.651C385.884 342.928 384.216 344.204 382.492 345.37C354.25 308.296 312.61 293.09 287.592 310.461L288.037 310.128C312.776 290.481 357.086 304.634 387.496 341.651ZM388.219 342.539C357.808 304.856 312.999 290.315 288.037 310.128L287.536 310.516C312.776 293.201 354.695 308.851 382.77 346.591C384.605 345.314 386.44 343.927 388.219 342.539Z" fill="#161616"/>
</g>
<defs>
<clipPath id="clip0_9_15">
<rect width="472" height="490" fill="white"/>
</clipPath>
</defs>
</svg>
