<svg width="472" height="486" viewBox="0 0 472 486" fill="none" xmlns="http://www.w3.org/2000/svg">
<path d="M338.032 171.916C340.89 174.423 343.548 177.081 346.106 179.889C339.787 200.701 337.931 217.501 349.516 231.994C346.858 229.236 343.197 225.625 340.389 223.017C330.961 214.492 329.406 196.99 338.032 171.916Z" fill="black"/>
<path d="M338.032 171.916C340.89 174.423 343.548 177.081 346.106 179.889C339.787 200.701 337.931 217.501 349.516 231.994C346.858 229.236 343.197 225.625 340.389 223.017C330.961 214.492 329.406 196.99 338.032 171.916ZM337.781 171.665C329.155 196.739 330.66 214.241 340.088 222.716C342.996 225.475 346.908 229.186 349.666 232.144C339.988 221.513 338.132 203.61 346.206 180.04C343.598 177.131 340.74 174.323 337.781 171.665Z" fill="#231F20"/>
<path d="M322.285 160.03C325.545 162.137 328.704 164.343 331.713 166.7C322.786 192.577 323.789 209.678 332.616 216.598C329.356 214.241 324.993 211.082 321.683 208.825L320.279 207.922C312.757 201.152 313.308 187.712 322.285 160.03Z" fill="black"/>
<path d="M322.285 160.03C325.545 162.137 328.704 164.343 331.713 166.7C322.786 192.577 323.789 209.678 332.616 216.598C329.356 214.241 324.993 211.082 321.683 208.825L320.279 207.922C312.757 201.152 313.308 187.712 322.285 160.03ZM321.934 159.83C312.707 186.659 312.556 202.958 319.828 207.622L321.633 208.775C325.043 211.132 329.607 214.342 332.967 216.849C324.09 209.878 323.087 192.778 331.964 166.901C328.754 164.393 325.444 162.036 321.934 159.83Z" fill="#231F20"/>
<path d="M304.633 150.502C308.193 152.107 311.704 153.862 315.064 155.768C305.686 183.049 304.582 198.745 310.4 202.005L303.329 198.244L295.656 194.583C292.346 193.028 295.104 178.134 304.633 150.502Z" fill="black"/>
<path d="M304.633 150.502C308.193 152.107 311.704 153.862 315.064 155.768C305.686 183.049 304.582 198.745 310.4 202.005L303.329 198.244L295.656 194.583C292.346 193.028 295.104 178.134 304.633 150.502ZM304.282 150.352C294.753 178.034 291.945 192.878 295.154 194.382L303.279 198.244L310.801 202.256C304.934 198.896 305.987 183.199 315.364 155.918C311.804 153.912 308.043 152.007 304.282 150.352Z" fill="#231F20"/>
<path d="M285.726 143.481C289.488 144.584 293.148 145.838 296.809 147.242C292.597 159.579 282.768 188.515 284.473 189.919L283.119 189.418C278.756 187.913 272.938 185.907 268.525 184.553C270.23 185.004 276.148 171.314 285.726 143.481Z" fill="black"/>
<path d="M285.726 143.481C289.488 144.585 293.148 145.838 296.809 147.242C292.597 159.579 282.768 188.515 284.473 189.919L283.119 189.418C278.756 187.913 272.939 185.907 268.525 184.553C270.23 185.005 276.148 171.314 285.726 143.481ZM285.375 143.381C275.797 171.163 269.829 184.854 267.974 184.403C272.537 185.857 278.605 187.813 283.119 189.418L284.974 190.12C283.62 189.568 287.582 175.225 297.16 147.343C293.299 145.888 289.337 144.534 285.375 143.381Z" fill="#231F20"/>
<path d="M266.219 139.219C270.03 139.77 273.791 140.472 277.602 141.375C268.074 169.007 260.853 182.397 256.841 181.494C252.077 180.541 245.657 179.237 240.843 178.485C247.814 179.488 256.841 166.449 266.219 139.219Z" fill="black"/>
<path d="M266.218 139.219C270.03 139.77 273.791 140.472 277.602 141.375C268.074 169.007 260.853 182.397 256.841 181.494C252.077 180.541 245.657 179.238 240.843 178.485C247.814 179.488 256.841 166.45 266.218 139.219ZM265.867 139.169C256.49 166.399 247.413 179.388 240.342 178.385L240.843 178.485C245.808 179.338 252.428 180.541 257.342 181.645C261.204 182.497 268.425 169.158 277.903 141.475C273.941 140.523 269.879 139.77 265.867 139.169Z" fill="#231F20"/>
<path d="M246.761 137.814C250.472 137.814 254.283 137.965 258.044 138.266C248.867 164.995 238.737 177.883 229.71 177.181L220.784 176.63L215.067 176.529C226.45 176.429 237.884 163.591 246.761 137.814Z" fill="black"/>
<path d="M246.761 137.814C250.472 137.814 254.283 137.965 258.044 138.266C248.867 164.995 238.737 177.883 229.71 177.181L220.784 176.63L215.067 176.529C226.45 176.429 237.884 163.591 246.761 137.814ZM246.36 137.814C237.483 163.591 226.049 176.429 214.565 176.58L220.734 176.68L230.162 177.231C239.088 177.934 249.168 165.045 258.345 138.316C254.383 137.965 250.371 137.764 246.36 137.814Z" fill="#231F20"/>
<path d="M227.905 139.419C231.465 138.817 235.076 138.366 238.737 138.115C230.161 163.089 218.076 175.978 205.237 176.931L202.73 177.131C199.872 177.482 196.11 177.883 193.302 178.385C207.444 175.827 219.831 162.889 227.905 139.419Z" fill="black"/>
<path d="M227.905 139.419C231.465 138.817 235.076 138.366 238.737 138.115C230.162 163.09 218.076 175.978 205.238 176.931L202.73 177.131C199.872 177.482 196.11 177.883 193.302 178.385C207.444 175.827 219.831 162.889 227.905 139.419ZM227.554 139.52C220.984 156.57 212.91 173.621 192.951 178.435C195.91 178.034 199.821 177.432 202.73 177.131L205.639 176.88C218.427 175.978 230.462 163.089 239.088 138.065C235.176 138.366 231.315 138.817 227.554 139.52Z" fill="#231F20"/>
<path d="M210.353 144.284C213.612 143.03 216.922 141.977 220.382 141.074C212.76 163.24 200.473 176.178 185.93 179.939C183.473 180.642 180.213 181.645 177.806 182.497C191.948 176.981 203.482 164.243 210.353 144.284Z" fill="black"/>
<path d="M210.353 144.284C213.612 143.03 216.922 141.977 220.382 141.074C212.76 163.24 200.473 176.178 185.93 179.939C183.473 180.641 180.213 181.644 177.806 182.497C191.948 176.981 203.482 164.243 210.353 144.284ZM210.052 144.384C203.232 164.293 191.697 177.031 177.555 182.597C180.113 181.695 183.623 180.591 186.231 179.839C200.774 176.128 213.111 163.19 220.733 140.974C217.022 141.876 213.462 143.03 210.052 144.384Z" fill="#231F20"/>
<path d="M195.358 152.057C197.916 150.302 200.674 148.697 203.633 147.192C197.414 165.196 186.933 177.583 173.794 184.202C172.992 184.654 171.888 185.205 171.136 185.657L170.635 185.957C181.567 178.485 190.193 167.101 195.358 152.057Z" fill="black"/>
<path d="M195.358 152.057C197.916 150.301 200.674 148.697 203.633 147.192C197.414 165.196 186.933 177.582 173.794 184.202C172.992 184.653 171.889 185.205 171.136 185.656L170.635 185.957C181.567 178.485 190.193 167.101 195.358 152.057ZM195.107 152.257C189.942 167.202 181.467 178.485 170.585 186.058L171.136 185.707C171.989 185.255 173.092 184.603 173.945 184.152C187.134 177.582 197.665 165.196 203.883 147.092C200.774 148.647 197.815 150.352 195.107 152.257Z" fill="#231F20"/>
<path d="M184.025 162.187C185.88 160.03 187.936 157.974 190.193 156.069C185.83 168.706 178.909 178.886 170.033 186.459L169.983 186.509C170.234 186.258 170.534 185.907 170.785 185.656C176.402 178.987 180.915 171.163 184.025 162.187Z" fill="black"/>
<path d="M184.025 162.187C185.88 160.03 187.936 157.974 190.193 156.069C185.83 168.706 178.909 178.886 170.033 186.459L169.983 186.509C170.234 186.258 170.534 185.907 170.785 185.656C176.402 178.987 180.915 171.163 184.025 162.187ZM183.824 162.387C179.912 171.966 177.957 176.78 170.785 185.606C170.534 185.907 170.183 186.258 169.933 186.509L170.033 186.459C179.01 178.836 185.98 168.606 190.393 155.868C187.936 157.874 185.78 160.081 183.824 162.387Z" fill="#231F20"/>
<path d="M176.402 174.122C177.505 171.665 178.809 169.258 180.364 167.001C178.207 173.22 175.349 178.937 171.888 184.152C173.092 182.146 173.192 181.996 173.844 180.541C174.797 178.435 175.65 176.279 176.402 174.122Z" fill="black"/>
<path d="M176.402 174.122C177.505 171.665 178.809 169.258 180.364 167.001C178.207 173.22 175.349 178.937 171.889 184.152C173.092 182.146 173.192 181.996 173.844 180.541C174.797 178.435 175.65 176.279 176.402 174.122ZM176.302 174.323C175.6 176.379 174.797 178.385 173.945 180.341C172.791 182.748 172.741 182.848 171.838 184.152C175.399 178.886 178.358 173.069 180.514 166.7C178.859 169.157 177.455 171.715 176.302 174.323Z" fill="#231F20"/>
<path d="M340.439 223.017C343.247 225.675 346.908 229.236 349.566 231.994C355.182 237.209 372.283 253.006 421.229 233.599C415.11 226.879 408.591 220.46 401.721 214.342C372.885 230.69 351.371 232.847 340.439 223.017Z" fill="black"/>
<path d="M340.439 223.017C343.247 225.675 346.908 229.236 349.566 231.994C355.183 237.209 372.283 253.006 421.229 233.599C415.11 226.879 408.591 220.46 401.721 214.342C372.885 230.69 351.371 232.846 340.439 223.017ZM340.088 222.716C350.97 232.445 372.384 230.189 401.019 213.74C408.24 220.159 415.11 226.879 421.53 233.95C387.679 247.59 362.203 245.885 349.716 232.144C346.858 229.236 343.047 225.475 340.088 222.716Z" fill="#231F20"/>
<path d="M320.279 207.872L321.683 208.775C324.993 211.082 329.406 214.141 332.616 216.548C342.194 224.07 360.95 219.607 386.325 201.604C379.003 195.937 371.381 190.571 363.457 185.506C354.781 193.58 331.663 215.044 320.279 207.872Z" fill="black"/>
<path d="M320.279 207.872L321.683 208.775C324.993 211.082 329.406 214.141 332.616 216.548C342.194 224.07 360.95 219.607 386.325 201.604C379.003 195.937 371.381 190.571 363.457 185.506C354.781 193.58 331.663 215.044 320.279 207.872ZM319.828 207.571C327.149 212.285 342.044 205.114 362.655 184.954C371.08 190.32 379.204 196.037 386.977 202.105C361.501 220.059 342.595 224.422 332.967 216.799C329.607 214.342 325.093 211.032 321.633 208.725L319.828 207.571Z" fill="#231F20"/>
<path d="M295.656 194.583L303.329 198.244L310.4 202.005C316.066 205.215 328.403 196.539 346.056 175.125C337.831 170.562 329.356 166.299 320.78 162.438C307.341 185.506 298.765 196.037 295.656 194.583Z" fill="black"/>
<path d="M295.656 194.583L303.329 198.244L310.4 202.005C316.066 205.214 328.403 196.539 346.055 175.125C337.831 170.561 329.356 166.299 320.78 162.437C307.341 185.506 298.765 196.037 295.656 194.583ZM295.154 194.382C298.213 195.786 306.638 185.205 319.928 162.036C329.105 166.148 338.082 170.662 346.858 175.526C329.055 196.89 316.618 205.515 310.851 202.205L303.329 198.194L295.154 194.382Z" fill="#231F20"/>
<path d="M268.475 184.553C272.888 185.957 278.756 187.863 283.068 189.418L284.423 189.919C285.827 189.267 288.936 184.503 301.824 154.514C292.998 151.154 284.021 148.095 274.995 145.437C268.876 171.113 266.87 184.102 268.475 184.553Z" fill="black"/>
<path d="M268.475 184.553C272.888 185.957 278.756 187.863 283.069 189.417L284.423 189.919C285.827 189.267 288.936 184.503 301.824 154.514C292.998 151.154 284.021 148.095 274.995 145.437C268.876 171.113 266.87 184.102 268.475 184.553ZM267.974 184.403C266.218 183.951 268.124 170.913 274.142 145.236C283.771 148.045 293.349 151.254 302.727 154.865C292.246 178.986 286.278 190.621 284.974 190.12L283.119 189.417C278.605 187.863 272.587 185.706 267.974 184.403Z" fill="#231F20"/>
<path d="M240.843 178.485C245.657 179.338 252.077 180.491 256.841 181.494C253.079 180.642 252.277 166.951 255.336 140.322C246.209 138.216 236.982 136.46 227.804 135.106C229.108 162.939 233.973 177.482 240.843 178.485Z" fill="black"/>
<path d="M240.843 178.485C245.657 179.338 252.076 180.491 256.841 181.494C253.079 180.641 252.277 166.951 255.336 140.322C246.209 138.216 236.982 136.46 227.804 135.106C229.108 162.939 233.973 177.482 240.843 178.485ZM240.342 178.385C233.371 177.382 228.356 162.889 226.902 135.006C236.681 136.41 246.46 138.266 256.189 140.522C252.979 167.051 253.681 180.792 257.342 181.594C252.377 180.591 245.808 179.237 240.843 178.435L240.342 178.385Z" fill="#231F20"/>
<path d="M215.016 176.58L220.733 176.68L229.66 177.231C220.483 176.529 212.509 161.635 207.895 132.9C198.718 132.148 189.591 131.746 180.564 131.797C189.992 161.635 202.529 176.68 215.016 176.58Z" fill="black"/>
<path d="M215.016 176.579L220.733 176.68L229.66 177.231C220.483 176.529 212.509 161.635 207.895 132.9C198.718 132.148 189.591 131.746 180.564 131.796C189.992 161.635 202.529 176.68 215.016 176.579ZM214.565 176.579C201.978 176.73 189.29 161.685 179.762 131.746C189.39 131.696 199.069 132.097 208.848 132.95C213.311 161.685 221.135 176.529 230.212 177.231L220.784 176.68L214.565 176.579Z" fill="#231F20"/>
<path d="M193.302 178.335C196.11 177.934 199.922 177.382 202.73 177.081L205.237 176.88C190.293 177.984 174.296 163.09 161.257 132.398C152.38 133.05 143.604 134.103 135.029 135.608C153.534 167.352 174.897 181.695 193.302 178.335Z" fill="black"/>
<path d="M193.302 178.335C196.11 177.934 199.922 177.382 202.73 177.081L205.237 176.88C190.293 177.984 174.296 163.09 161.257 132.398C152.381 133.05 143.604 134.103 135.029 135.608C153.534 167.352 174.897 181.695 193.302 178.335ZM192.951 178.435C184.375 179.288 161.708 181.494 134.227 135.809C143.354 134.204 152.681 133.05 162.16 132.398C174.998 163.039 190.895 177.984 205.689 176.88L202.78 177.131C199.821 177.482 195.86 178.034 192.951 178.435Z" fill="#231F20"/>
<path d="M177.756 182.497C180.163 181.645 183.423 180.642 185.88 179.939C165.018 185.356 139.542 171.866 116.725 139.62C108.4 141.776 100.326 144.334 92.5027 147.393C121.84 180.291 153.634 191.875 177.756 182.497Z" fill="black"/>
<path d="M177.756 182.497C180.163 181.645 183.423 180.642 185.88 179.939C165.018 185.356 139.542 171.866 116.725 139.62C108.4 141.776 100.326 144.334 92.5028 147.393C121.84 180.291 153.634 191.875 177.756 182.497ZM177.505 182.597C153.283 192.126 121.288 180.591 91.7505 147.644C100.075 144.384 108.701 141.626 117.577 139.369C140.144 171.615 165.419 185.155 186.181 179.839C183.573 180.591 180.063 181.645 177.505 182.597Z" fill="#231F20"/>
<path d="M170.635 186.007L171.136 185.706C171.939 185.255 172.992 184.653 173.794 184.252C147.566 197.491 110.757 187.813 76.2545 154.564C69.0832 158.125 62.4134 162.036 56.1949 166.299C98.2197 199.497 142.351 205.465 170.635 186.007Z" fill="black"/>
<path d="M170.635 186.008L171.136 185.707C171.939 185.255 172.992 184.653 173.794 184.252C147.566 197.492 110.757 187.813 76.2545 154.564C69.0832 158.125 62.4134 162.036 56.195 166.299C98.2197 199.498 142.351 205.465 170.635 186.008ZM170.585 186.008C142.25 205.716 97.8687 199.899 55.5932 166.65C62.1627 162.137 69.2838 157.924 76.9566 154.163C111.208 187.412 147.817 197.191 173.945 184.152C173.092 184.603 171.939 185.205 171.136 185.707L170.585 186.008Z" fill="#231F20"/>
<path d="M170.735 185.656C170.484 185.907 170.183 186.258 169.933 186.509L169.983 186.459C140.997 211.333 91.3493 208.825 43.6076 175.877C38.1414 180.541 33.1766 185.506 28.7134 190.721C84.7297 222.516 142.351 218.955 170.735 185.656Z" fill="black"/>
<path d="M170.735 185.656C170.484 185.907 170.183 186.258 169.933 186.509L169.983 186.459C140.997 211.333 91.3493 208.825 43.6076 175.877C38.1414 180.541 33.1766 185.506 28.7134 190.721C84.7297 222.516 142.351 218.955 170.735 185.656ZM170.785 185.556C138.038 220.209 86.1338 222.265 28.3122 191.173C33.0262 185.606 38.2918 180.341 44.1592 175.376C91.6502 208.324 141.047 211.032 170.033 186.409L169.933 186.459C170.183 186.208 170.534 185.857 170.785 185.556Z" fill="#231F20"/>
<path d="M173.844 180.491C172.641 182.898 172.641 182.898 171.888 184.102C145.259 223.92 81.8712 232.796 19.9374 202.306C16.2263 207.872 13.0168 213.64 10.3088 219.607C80.5172 247.239 151.779 229.637 173.844 180.491Z" fill="black"/>
<path d="M173.844 180.491C172.641 182.898 172.641 182.898 171.888 184.102C145.259 223.92 81.8712 232.796 19.9373 202.306C16.2263 207.872 13.0168 213.639 10.3088 219.607C80.5172 247.239 151.779 229.637 173.844 180.491ZM173.945 180.391C152.08 229.838 80.5172 247.741 10.1082 220.159C12.9165 213.79 16.3266 207.672 20.3385 201.754C82.0216 232.295 145.109 223.669 171.888 184.202C172.992 182.296 173.192 181.996 173.945 180.391Z" fill="#231F20"/>
<path d="M363.608 246.437C363.858 245.584 364.159 244.381 364.41 243.528C345.855 297.488 391.139 362.03 465.56 387.656C466.964 383.594 468.118 379.431 469.071 375.219C397.257 354.658 351.973 298.291 363.608 246.437Z" fill="black"/>
<path d="M363.608 246.437C363.858 245.584 364.159 244.381 364.41 243.528C345.855 297.488 391.139 362.03 465.56 387.656C466.964 383.594 468.118 379.431 469.071 375.219C397.257 354.658 351.973 298.291 363.608 246.437ZM363.557 246.587C352.224 298.341 397.508 354.307 469.221 374.617C468.268 379.03 467.015 383.393 465.56 387.656C391.139 362.03 345.855 297.488 364.41 243.528C364.159 244.431 363.808 245.634 363.557 246.587Z" fill="#231F20"/>
<path d="M363.056 252.003C363.056 250.499 363.056 250.348 363.156 249.295C358.242 297.94 402.924 345.882 471.378 361.177C472.029 354.608 472.18 347.938 471.779 341.168C371.682 324.318 363.658 263.939 363.056 252.003Z" fill="black"/>
<path d="M363.056 252.003C363.056 250.499 363.056 250.348 363.156 249.295C358.242 297.94 402.924 345.882 471.378 361.177C472.029 354.608 472.18 347.938 471.779 341.168C371.682 324.318 363.658 263.939 363.056 252.003ZM363.056 252.104C371.08 318.4 441.689 336.053 471.729 340.566C472.18 347.788 472.029 354.909 471.327 361.88C400.969 343.726 360.498 301.651 363.206 249.245C363.006 250.9 363.006 251.351 363.056 252.104Z" fill="#231F20"/>
<path d="M362.855 252.003L362.956 252.405L363.056 252.806C375.994 309.424 435.621 323.265 469.973 326.525C468.77 319.654 467.065 312.684 464.808 305.763C411.6 306.315 373.336 284.4 362.855 252.003Z" fill="black"/>
<path d="M362.855 252.003L362.956 252.404L363.056 252.806C375.994 309.424 435.621 323.265 469.973 326.524C468.77 319.654 467.065 312.683 464.808 305.763C411.6 306.314 373.336 284.399 362.855 252.003ZM362.855 251.903C373.437 284.099 411.6 305.813 464.658 305.011C467.115 312.433 468.92 319.805 470.174 327.126C410.848 322.412 369.525 291.721 363.156 252.756L363.056 252.404L362.855 251.903Z" fill="#231F20"/>
<path d="M359.395 244.932L361.15 248.092L361.953 249.797C377.348 279.986 410.045 293.677 459.041 290.568C455.982 283.597 452.371 276.576 448.209 269.656C404.88 277.579 372.634 267.198 359.395 244.932Z" fill="black"/>
<path d="M359.395 244.932L361.15 248.092L361.953 249.797C377.348 279.986 410.046 293.677 459.041 290.568C455.982 283.597 452.371 276.576 448.209 269.656C404.88 277.579 372.634 267.198 359.395 244.932ZM359.295 244.732C365.363 253.408 383.717 279.836 447.858 269.004C452.321 276.426 456.183 283.848 459.392 291.27C408.942 293.677 376.195 279.786 362.053 249.897L361.201 248.092C360.599 247.089 359.897 245.685 359.295 244.732Z" fill="#231F20"/>
<path d="M349.817 232.245C351.772 234.551 354.33 237.61 356.186 240.018L356.386 240.268C369.676 258.723 399.113 265.142 438.43 254.661C433.465 247.791 427.898 240.97 421.83 234.2C387.83 247.841 362.304 246.035 349.817 232.245Z" fill="black"/>
<path d="M349.817 232.245C351.773 234.552 354.33 237.611 356.186 240.018L356.386 240.269C369.676 258.723 399.113 265.142 438.43 254.661C433.465 247.791 427.899 240.971 421.831 234.201C387.83 247.841 362.304 246.036 349.817 232.245ZM349.666 232.144C362.153 245.885 387.629 247.54 421.479 233.95C427.898 241.021 433.666 248.142 438.881 255.363C398.06 264.842 370.328 259.827 356.486 240.519L356.135 240.068C354.28 237.611 351.672 234.451 349.666 232.144Z" fill="#231F20"/>
<path d="M365.914 238.363C365.513 240.118 365.062 241.823 364.46 243.478C364.209 244.331 363.858 245.484 363.658 246.387C364.209 243.729 364.962 241.071 365.914 238.363Z" fill="black"/>
<path d="M365.914 238.363C365.513 240.118 365.062 241.823 364.46 243.478C364.209 244.331 363.858 245.484 363.658 246.387C364.209 243.729 364.962 241.071 365.914 238.363ZM365.965 238.112C365.012 240.921 364.209 243.729 363.608 246.537C363.858 245.635 364.159 244.381 364.46 243.478C365.062 241.773 365.563 239.968 365.965 238.112Z" fill="#231F20"/>
<path d="M366.968 224.321C367.118 227.13 367.068 229.888 366.817 232.596C364.911 238.162 363.708 243.729 363.106 249.295C362.956 251.151 362.956 251.151 363.006 252.003C363.056 240.77 363.206 236.257 366.968 224.321Z" fill="black"/>
<path d="M366.968 224.321C367.118 227.13 367.068 229.888 366.817 232.596C364.911 238.162 363.708 243.729 363.106 249.295C362.956 251.151 362.956 251.151 363.006 252.003C363.056 240.77 363.206 236.257 366.968 224.321ZM366.968 224.071C363.908 234.903 362.605 239.366 363.056 252.104C363.056 250.649 363.006 250.449 363.156 249.245C364.911 238.513 364.962 238.313 366.817 232.897C367.118 229.988 367.168 227.029 366.968 224.071Z" fill="#231F20"/>
<path d="M364.159 209.678C365.112 212.536 365.814 215.445 366.316 218.253C363.307 228.835 360.9 237.21 363.156 252.756L363.056 252.355L362.956 251.953C358.743 239.266 358.894 224.873 364.159 209.678Z" fill="black"/>
<path d="M364.159 209.678C365.112 212.536 365.814 215.445 366.316 218.253C363.307 228.835 360.9 237.21 363.156 252.756L363.056 252.355L362.956 251.953C358.743 239.266 358.894 224.873 364.159 209.678ZM364.059 209.377C358.793 224.723 358.643 239.115 362.855 251.903L363.006 252.355C363.056 252.455 363.056 252.656 363.106 252.706C361.301 241.823 362.254 230.289 366.316 218.504C365.814 215.495 365.062 212.436 364.059 209.377Z" fill="#231F20"/>
<path d="M357.289 194.784C358.994 197.642 360.498 200.551 361.752 203.409C358.292 215.244 354.029 229.988 362.003 249.747L361.2 248.042L359.445 244.882C351.672 231.844 350.418 214.693 357.289 194.784Z" fill="black"/>
<path d="M357.289 194.784C358.994 197.642 360.498 200.551 361.752 203.409C358.292 215.244 354.029 229.988 362.003 249.747L361.2 248.042L359.445 244.882C351.672 231.844 350.418 214.693 357.289 194.784ZM357.138 194.483C351.622 213.238 350.017 228.133 359.295 244.682C359.846 245.685 360.649 247.039 361.2 248.042L362.053 249.847C358.693 240.469 354.129 227.581 361.902 203.66C360.548 200.651 358.994 197.542 357.138 194.483Z" fill="#231F20"/>
<path d="M346.356 180.14C348.864 182.899 351.171 185.757 353.227 188.565C345.805 210.179 347.46 227.932 356.336 240.269L356.135 240.018C354.28 237.661 351.772 234.502 349.766 232.245C340.088 221.613 338.232 203.71 346.356 180.14Z" fill="black"/>
<path d="M346.356 180.14C348.864 182.898 351.171 185.757 353.227 188.565C345.805 210.179 347.46 227.932 356.336 240.269L356.135 240.018C354.28 237.661 351.772 234.501 349.766 232.245C340.088 221.613 338.232 203.71 346.356 180.14ZM346.206 180.04C338.082 203.61 339.937 221.513 349.666 232.145C351.672 234.502 354.28 237.611 356.135 240.068L356.486 240.519C347.209 225.274 346.407 212.235 353.377 188.866C351.271 185.907 348.864 182.948 346.206 180.04Z" fill="#231F20"/>
<path d="M416.214 59.2814C421.078 63.6444 425.692 68.1578 430.055 72.9219C391.541 103.011 358.643 143.582 346.106 179.889C343.548 177.131 340.89 174.473 338.032 171.916C350.519 135.608 381.16 92.7307 416.214 59.2814Z" fill="black"/>
<path d="M416.214 59.2813C421.078 63.6442 425.692 68.1576 430.055 72.9218C391.541 103.011 358.643 143.582 346.106 179.889C343.548 177.131 340.89 174.473 338.032 171.916C350.519 135.608 381.16 92.7306 416.214 59.2813ZM416.264 58.3284C381.11 91.9783 350.318 135.207 337.781 171.665C340.74 174.323 343.598 177.081 346.256 179.99C358.793 143.481 392.042 102.71 430.857 72.671C426.244 67.6562 421.379 62.892 416.264 58.3284Z" fill="#231F20"/>
<path d="M389.133 38.8205C394.7 42.3811 400.116 46.1924 405.331 50.2043C372.985 85.9605 344.2 130.342 331.713 166.65C328.704 164.293 325.545 162.086 322.285 159.98C334.772 123.723 360.849 77.385 389.133 38.8205Z" fill="black"/>
<path d="M389.133 38.8206C394.7 42.3812 400.116 46.1925 405.331 50.2044C372.985 85.9606 344.2 130.342 331.713 166.65C328.704 164.293 325.545 162.087 322.285 159.98C334.772 123.723 360.849 77.3851 389.133 38.8206ZM388.983 37.8678C360.649 76.6329 334.471 123.321 321.934 159.78C325.394 161.986 328.754 164.343 331.964 166.851C344.501 130.342 373.637 85.76 406.284 50.054C400.768 45.7412 395.001 41.6791 388.983 37.8678Z" fill="#231F20"/>
<path d="M358.843 22.472C364.962 25.2301 370.929 28.2391 376.747 31.4486C351.522 71.8686 327.5 119.41 315.013 155.718C311.603 153.812 308.143 152.107 304.582 150.452C317.12 114.194 338.082 65.0985 358.843 22.472Z" fill="black"/>
<path d="M358.843 22.4721C364.962 25.2303 370.929 28.2392 376.747 31.4487C351.522 71.8687 327.5 119.41 315.013 155.718C311.603 153.812 308.143 152.107 304.582 150.452C317.12 114.194 338.082 65.0986 358.843 22.4721ZM358.593 21.5694C337.881 64.3965 316.819 113.843 304.281 150.352C308.093 152.057 311.804 153.912 315.415 155.918C327.952 119.41 352.224 71.618 377.75 31.1478C371.481 27.6876 365.112 24.478 358.593 21.5694Z" fill="#231F20"/>
<path d="M326.447 10.4865C332.866 12.3921 339.235 14.4984 345.454 16.9055C328.002 60.9362 309.296 110.935 296.809 147.242C293.148 145.838 289.437 144.585 285.726 143.481C298.214 107.173 313.76 56.1219 326.447 10.4865Z" fill="black"/>
<path d="M326.447 10.4866C332.866 12.3922 339.235 14.4985 345.454 16.9056C328.002 60.9363 309.296 110.935 296.809 147.243C293.148 145.838 289.437 144.585 285.726 143.481C298.213 107.174 313.76 56.122 326.447 10.4866ZM325.996 9.58389C313.409 55.42 297.913 106.873 285.325 143.381C289.287 144.535 293.249 145.889 297.11 147.343C309.647 110.834 328.654 60.5853 346.306 16.4543C339.687 13.8967 332.866 11.5898 325.996 9.58389Z" fill="#231F20"/>
<path d="M292.998 3.11473C299.517 4.06756 306.037 5.32127 312.506 6.77559C303.278 53.3639 290.089 105.067 277.602 141.375C273.841 140.523 270.03 139.77 266.218 139.219C278.706 102.911 288.635 50.6057 292.998 3.11473Z" fill="black"/>
<path d="M292.998 3.11466C299.517 4.06748 306.037 5.3212 312.506 6.77552C303.279 53.3638 290.089 105.067 277.602 141.375C273.841 140.523 270.03 139.77 266.219 139.219C278.706 102.911 288.635 50.6056 292.998 3.11466ZM292.446 2.31227C288.284 50.0038 278.455 102.66 265.867 139.169C269.93 139.77 273.941 140.523 277.953 141.475C290.491 104.967 303.88 52.9626 313.258 6.27403C306.338 4.66926 299.367 3.31525 292.446 2.31227Z" fill="#231F20"/>
<path d="M259.549 0.707452C265.968 0.657303 272.437 0.958199 278.906 1.50984C278.054 49.402 270.481 101.958 257.994 138.266C254.233 137.965 250.422 137.814 246.711 137.814C259.248 101.507 263.561 48.8002 259.549 0.707452Z" fill="black"/>
<path d="M259.549 0.707473C265.968 0.657324 272.437 0.95822 278.906 1.50986C278.054 49.402 270.481 101.958 257.994 138.266C254.233 137.965 250.422 137.814 246.711 137.814C259.248 101.507 263.561 48.8002 259.549 0.707473ZM258.897 0.00539142C263.159 48.2486 258.947 101.306 246.41 137.814C250.371 137.764 254.383 137.965 258.395 138.316C270.932 101.808 278.655 48.9005 279.558 0.857928C272.638 0.256142 265.717 -0.0447574 258.897 0.00539142Z" fill="#231F20"/>
<path d="M227.253 3.51581C233.321 2.46268 239.539 1.71045 245.858 1.25911C253.28 49.2014 251.274 101.808 238.737 138.115C235.076 138.366 231.465 138.817 227.905 139.419C240.392 103.111 239.289 50.8563 227.253 3.51581Z" fill="black"/>
<path d="M227.253 3.5158C233.321 2.46267 239.539 1.71044 245.858 1.2591C253.28 49.2014 251.274 101.808 238.737 138.115C235.076 138.366 231.465 138.817 227.905 139.419C240.392 103.111 239.289 50.8563 227.253 3.5158ZM226.501 2.91401C238.837 50.4551 240.141 103.011 227.604 139.52C231.365 138.868 235.226 138.366 239.138 138.115C251.675 101.607 253.782 48.6498 246.36 0.506866C239.589 0.958206 232.97 1.76058 226.501 2.91401Z" fill="#231F20"/>
<path d="M197.113 11.7903C202.68 9.63395 208.397 7.82859 214.314 6.27397C229.56 52.9626 232.87 104.716 220.382 141.024C216.972 141.927 213.612 142.98 210.353 144.234C222.84 107.976 216.671 57.0748 197.113 11.7903Z" fill="black"/>
<path d="M197.113 11.7905C202.68 9.63408 208.397 7.82872 214.314 6.2741C229.56 52.9627 232.869 104.716 220.382 141.024C216.972 141.927 213.612 142.98 210.353 144.234C222.84 107.976 216.671 57.0749 197.113 11.7905ZM196.311 11.289C216.22 56.7239 222.589 107.876 210.052 144.334C213.512 142.98 217.073 141.827 220.733 140.924C233.271 104.415 230.011 52.3108 214.716 5.37143C208.347 7.02634 202.229 8.98214 196.311 11.289Z" fill="#231F20"/>
<path d="M171.387 25.1802C175.75 22.1712 180.514 19.413 185.579 16.8555C207.996 60.8862 216.12 110.885 203.583 147.192C200.624 148.647 197.866 150.302 195.308 152.057C207.845 115.749 197.364 67.1548 171.387 25.1802Z" fill="black"/>
<path d="M171.387 25.1802C175.75 22.1713 180.514 19.4131 185.579 16.8555C207.996 60.8862 216.12 110.885 203.583 147.192C200.624 148.647 197.866 150.302 195.308 152.057C207.845 115.749 197.364 67.1548 171.387 25.1802ZM170.585 24.8292C196.913 66.8539 207.645 115.749 195.107 152.207C197.815 150.352 200.774 148.597 203.934 147.042C216.471 110.534 208.297 60.1841 185.78 15.9027C180.313 18.6609 175.248 21.6197 170.585 24.8292Z" fill="#231F20"/>
<path d="M151.929 42.4814C155.089 38.7704 158.599 35.2599 162.46 32.0003C190.644 72.2698 202.63 119.761 190.143 156.069C187.886 157.974 185.83 160.03 183.974 162.187C196.512 125.829 182.721 80.1432 151.929 42.4814Z" fill="black"/>
<path d="M151.929 42.4815C155.089 38.7705 158.599 35.2601 162.46 32.0004C190.644 72.2699 202.63 119.761 190.143 156.069C187.886 157.974 185.83 160.03 183.974 162.187C196.512 125.829 182.721 80.1433 151.929 42.4815ZM151.177 42.2809C182.37 79.9427 196.411 125.879 183.824 162.387C185.78 160.081 187.936 157.924 190.343 155.868C202.88 119.36 190.795 71.5679 162.41 31.0977C158.248 34.6081 154.537 38.3191 151.177 42.2809Z" fill="#231F20"/>
<path d="M138.891 62.9925C140.796 58.78 143.053 54.6678 145.711 50.7562C178.057 86.3619 192.901 130.693 180.414 167.001C178.859 169.308 177.555 171.665 176.452 174.122C188.889 137.815 172.942 95.5391 138.891 62.9925Z" fill="black"/>
<path d="M138.891 62.9924C140.796 58.7799 143.053 54.6677 145.711 50.7561C178.057 86.3618 192.901 130.693 180.414 167.001C178.859 169.308 177.555 171.665 176.452 174.122C188.889 137.815 172.942 95.539 138.891 62.9924ZM138.188 62.8922C172.641 95.3886 188.839 137.865 176.302 174.323C177.455 171.715 178.859 169.158 180.514 166.7C193.051 130.192 178.107 85.5594 145.46 49.7531C142.602 54.0158 140.194 58.3788 138.188 62.8922Z" fill="#231F20"/>
<path d="M463.956 173.27C463.304 176.279 462.451 179.187 461.448 182.096C415.111 184.955 376.897 207.221 364.41 243.528C365.012 241.823 365.463 240.118 365.864 238.413C378.402 202.055 417.016 178.335 463.956 173.27Z" fill="black"/>
<path d="M463.956 173.27C463.304 176.279 462.451 179.187 461.448 182.096C415.111 184.955 376.897 207.221 364.41 243.528C365.012 241.823 365.463 240.118 365.864 238.413C378.402 202.055 417.016 178.335 463.956 173.27ZM464.758 172.768C417.468 177.783 378.502 201.654 365.915 238.162C365.513 239.968 365.012 241.773 364.41 243.579C376.947 207.07 415.512 184.804 462.15 182.096C463.203 178.987 464.106 175.878 464.758 172.768Z" fill="#231F20"/>
<path d="M465.861 149.148C466.162 153.963 466.062 158.676 465.56 163.34C418.22 170.863 379.304 196.288 366.817 232.596C367.068 229.888 367.168 227.13 366.968 224.321C384.72 178.285 430.556 158.075 465.861 149.148Z" fill="black"/>
<path d="M465.861 149.148C466.162 153.962 466.062 158.676 465.56 163.34C418.22 170.863 379.304 196.288 366.817 232.596C367.068 229.888 367.168 227.13 366.968 224.321C384.72 178.285 430.556 158.075 465.861 149.148ZM466.563 148.546C418.822 159.629 379.505 187.562 366.968 224.071C367.168 227.029 367.118 229.988 366.817 232.897C379.354 196.388 418.621 171.013 466.262 163.741C466.764 158.727 466.864 153.662 466.563 148.546Z" fill="#231F20"/>
<path d="M460.997 123.973C462.602 128.888 463.805 133.853 464.658 138.717C414.108 154.364 380.107 181.895 366.316 218.253C365.814 215.395 365.112 212.536 364.159 209.678C376.646 173.37 414.76 141.325 460.997 123.973Z" fill="black"/>
<path d="M460.997 123.973C462.602 128.888 463.805 133.853 464.658 138.717C414.108 154.364 380.107 181.895 366.316 218.253C365.814 215.395 365.112 212.536 364.159 209.678C376.646 173.37 414.76 141.325 460.997 123.973ZM461.498 123.221C415.01 140.623 376.596 172.868 364.009 209.377C365.012 212.436 365.764 215.495 366.266 218.504C378.803 181.996 417.919 152.458 465.36 138.968C464.557 133.752 463.253 128.537 461.498 123.221Z" fill="#231F20"/>
<path d="M449.212 98.4476C452.171 103.362 454.728 108.327 456.885 113.292C408.391 135.708 375.493 166.851 361.752 203.409C360.498 200.501 358.994 197.642 357.289 194.784C369.776 158.476 405.933 122.168 449.212 98.4476Z" fill="black"/>
<path d="M449.212 98.4475C452.171 103.362 454.728 108.327 456.885 113.292C408.391 135.708 375.493 166.851 361.752 203.409C360.498 200.5 358.994 197.642 357.289 194.784C369.776 158.476 405.933 122.168 449.212 98.4475ZM449.563 97.6452C406.084 121.466 369.676 158.024 357.088 194.533C358.944 197.592 360.549 200.651 361.852 203.71C374.39 167.202 412.202 133.351 457.737 113.492C455.48 108.176 452.772 102.911 449.563 97.6452Z" fill="#231F20"/>
<path d="M430.456 73.3732C434.769 78.1373 438.68 83.0018 442.241 87.8662C400.718 114.245 365.714 152.308 353.227 188.615C351.171 185.757 348.864 182.948 346.356 180.19C358.844 143.832 391.841 103.362 430.456 73.3732Z" fill="black"/>
<path d="M430.456 73.3731C434.769 78.1373 438.681 83.0017 442.241 87.8662C400.718 114.244 365.714 152.307 353.227 188.615C351.171 185.757 348.864 182.948 346.356 180.19C358.844 143.832 391.841 103.362 430.456 73.3731ZM430.807 72.6711C391.992 102.76 358.743 143.531 346.206 179.99C348.864 182.898 351.271 185.857 353.377 188.866C365.915 152.358 401.269 114.194 443.144 87.9163C439.483 82.8011 435.371 77.6859 430.807 72.6711Z" fill="#231F20"/>
<path d="M172.59 187.412C172.942 184.704 173.543 182.096 174.346 179.538C155.791 233.499 80.1159 257.319 5.34397 232.746C3.38817 238.965 1.984 245.334 1.13147 251.853C77.2575 270.258 154.035 241.372 172.59 187.412Z" fill="black"/>
<path d="M172.59 187.412C172.942 184.704 173.543 182.096 174.346 179.538C155.791 233.499 80.116 257.319 5.34399 232.746C3.38818 238.965 1.98402 245.334 1.13149 251.853C77.2575 270.258 154.035 241.372 172.59 187.412ZM172.54 187.713C153.985 241.673 77.1572 270.659 1.03119 252.505C1.93387 245.584 3.43833 238.764 5.54459 232.145C80.2162 256.918 155.841 233.248 174.396 179.288C173.543 181.996 172.942 184.804 172.54 187.713Z" fill="#231F20"/>
<path d="M172.691 201.704C172.29 198.896 172.139 196.087 172.189 193.329C153.634 247.289 76.5554 279.886 0.0783494 266.145C-0.0219484 272.815 0.379243 279.585 1.33207 286.456C77.3578 293.627 154.086 255.664 172.691 201.704Z" fill="black"/>
<path d="M172.691 201.704C172.29 198.896 172.139 196.088 172.189 193.329C153.634 247.29 76.5554 279.886 0.0783531 266.146C-0.0219447 272.815 0.379246 279.585 1.33207 286.456C77.3578 293.627 154.086 255.664 172.691 201.704ZM172.691 202.005C154.136 255.965 77.4079 294.078 1.38223 287.108C0.329101 279.786 -0.122238 272.565 0.0282088 265.494C76.5052 279.435 153.584 247.039 172.139 193.079C172.089 195.987 172.29 198.996 172.691 202.005Z" fill="#231F20"/>
<path d="M176.703 216.498C175.549 213.589 174.596 210.731 173.894 207.872C155.339 261.833 79.3637 303.657 4.24072 301.35C5.99593 308.271 8.25263 315.241 11.1111 322.262C83.9774 317.799 158.148 270.458 176.703 216.498Z" fill="black"/>
<path d="M176.703 216.498C175.549 213.589 174.596 210.731 173.894 207.873C155.339 261.833 79.3637 303.657 4.24073 301.35C5.99595 308.271 8.25264 315.241 11.1111 322.262C83.9774 317.799 158.148 270.458 176.703 216.498ZM176.803 216.799C158.248 270.759 84.178 318.25 11.3117 322.914C8.25265 315.492 5.8455 308.07 3.98999 300.698C79.1631 303.256 155.189 261.582 173.744 207.622C174.546 210.631 175.549 213.69 176.803 216.799Z" fill="#231F20"/>
<path d="M184.777 231.342C182.821 228.484 181.066 225.625 179.611 222.717C161.056 276.677 88.7415 327.979 18.0818 337.307C21.6925 344.277 25.905 351.248 30.619 358.169C97.1665 342.071 166.222 285.302 184.777 231.342Z" fill="black"/>
<path d="M184.777 231.342C182.821 228.484 181.066 225.625 179.611 222.717C161.056 276.677 88.7416 327.979 18.0818 337.307C21.6925 344.278 25.905 351.248 30.619 358.169C97.1666 342.071 166.222 285.302 184.777 231.342ZM184.977 231.643C166.422 285.603 97.5176 342.572 31.0704 358.871C26.0053 351.499 21.5421 344.127 17.6806 336.705C88.4407 327.578 160.856 276.476 179.411 222.516C181.015 225.525 182.871 228.584 184.977 231.643Z" fill="#231F20"/>
<path d="M196.913 245.735C195.559 244.431 194.255 243.027 193.001 241.673C191.747 240.269 190.544 238.865 189.39 237.46C170.835 291.421 104.739 352.101 41.7521 373.013C44.5103 376.423 47.469 379.783 50.5281 383.143C53.5872 386.503 56.7466 389.813 60.0063 393.022C117.026 365.641 178.358 299.695 196.913 245.735Z" fill="black"/>
<path d="M196.913 245.735C195.559 244.431 194.255 243.027 193.001 241.673C191.747 240.269 190.544 238.864 189.39 237.46C170.835 291.42 104.739 352.101 41.7521 373.013C44.5103 376.423 47.4691 379.783 50.5282 383.143C53.5872 386.503 56.7466 389.813 60.0063 393.022C117.026 365.641 178.358 299.695 196.913 245.735ZM197.163 245.986C178.608 299.946 117.477 366.042 60.6081 393.624C57.1478 390.214 53.7878 386.703 50.5282 383.143C47.2685 379.582 44.1592 375.971 41.2506 372.311C104.388 351.649 170.635 291.12 189.19 237.159C190.393 238.664 191.697 240.168 193.051 241.623C194.355 243.127 195.709 244.581 197.163 245.986Z" fill="#231F20"/>
<path d="M212.008 258.373C208.848 256.166 205.839 253.809 202.931 251.301C184.375 305.262 126.905 374.718 74.5494 406.462C81.5703 412.48 88.892 418.147 96.5147 423.513C141.749 386.252 193.452 312.283 212.008 258.373Z" fill="black"/>
<path d="M212.007 258.372C208.848 256.166 205.839 253.809 202.931 251.301C184.375 305.262 126.905 374.718 74.5494 406.462C81.5702 412.48 88.892 418.147 96.5146 423.513C141.749 386.252 193.452 312.283 212.007 258.372ZM212.308 258.573C193.753 312.533 142.25 386.603 97.2668 424.064C89.1427 418.347 81.3195 412.33 73.8975 405.91C126.453 374.367 184.075 305.011 202.68 251.051C205.739 253.709 208.948 256.216 212.308 258.573Z" fill="#231F20"/>
<path d="M229.158 268.603C225.698 266.847 222.288 264.942 218.978 262.936C200.423 316.896 153.133 393.774 113.415 434.646C121.388 439.56 129.663 444.124 138.088 448.386C169.782 403.052 210.603 322.563 229.158 268.603Z" fill="black"/>
<path d="M229.158 268.603C225.698 266.847 222.288 264.942 218.978 262.936C200.423 316.896 153.133 393.774 113.415 434.646C121.389 439.56 129.663 444.124 138.088 448.386C169.782 403.052 210.603 322.563 229.158 268.603ZM229.509 268.803C210.954 322.763 170.384 403.353 138.89 448.838C129.914 444.324 121.138 439.46 112.663 434.194C152.681 393.473 200.122 316.695 218.677 262.735C222.138 264.892 225.748 266.948 229.509 268.803Z" fill="#231F20"/>
<path d="M247.713 276.376C244.002 275.122 240.342 273.718 236.781 272.163C218.226 326.124 182.269 408.869 156.543 457.012C165.219 460.773 174.095 464.133 183.021 467.192C200.223 415.79 229.158 330.336 247.713 276.376Z" fill="black"/>
<path d="M247.713 276.376C244.002 275.122 240.342 273.718 236.781 272.163C218.226 326.123 182.269 408.869 156.543 457.012C165.219 460.773 174.095 464.133 183.021 467.192C200.223 415.79 229.158 330.336 247.713 276.376ZM248.065 276.526C229.509 330.486 200.774 415.99 183.874 467.493C174.346 464.284 164.918 460.673 155.69 456.661C181.718 408.669 217.875 325.973 236.43 272.013C240.241 273.668 244.153 275.172 248.065 276.526Z" fill="#231F20"/>
<path d="M267.121 281.491C263.31 280.789 259.549 279.886 255.787 278.833C237.232 332.793 213.361 419.802 202.529 473.16C211.606 475.667 220.783 477.774 229.961 479.529C231.917 424.114 248.566 335.451 267.121 281.491Z" fill="black"/>
<path d="M267.121 281.491C263.31 280.789 259.549 279.886 255.787 278.833C237.232 332.793 213.361 419.802 202.529 473.16C211.606 475.667 220.784 477.774 229.961 479.529C231.917 424.114 248.566 335.451 267.121 281.491ZM267.472 281.541C248.917 335.501 232.518 424.215 230.813 479.729C221.034 477.874 211.305 475.617 201.627 472.959C212.76 419.651 236.831 332.743 255.386 278.783C259.398 279.886 263.46 280.789 267.472 281.541Z" fill="#231F20"/>
<path d="M286.679 283.798C282.918 283.647 279.107 283.296 275.346 282.845C256.79 336.805 245.357 426.321 249.82 482.789C258.997 483.992 268.174 484.744 277.301 485.146C263.912 427.876 268.124 337.758 286.679 283.798Z" fill="black"/>
<path d="M286.679 283.798C282.918 283.647 279.107 283.296 275.345 282.845C256.79 336.805 245.356 426.321 249.82 482.789C258.997 483.992 268.174 484.744 277.301 485.146C263.912 427.876 268.124 337.758 286.679 283.798ZM287.03 283.798C268.475 337.758 264.513 427.926 278.154 485.146C268.475 484.744 258.696 483.942 248.917 482.638C244.705 426.221 256.389 336.705 274.944 282.745C279.006 283.296 283.018 283.647 287.03 283.798Z" fill="#231F20"/>
<path d="M305.786 283.096C302.175 283.547 298.514 283.798 294.753 283.898C276.198 337.858 277.151 428.026 296.859 485.346C305.836 485.146 314.762 484.494 323.488 483.441C295.154 426.722 287.181 337.056 305.786 283.096Z" fill="black"/>
<path d="M305.786 283.096C302.175 283.547 298.514 283.798 294.753 283.898C276.198 337.858 277.151 428.026 296.859 485.346C305.836 485.146 314.763 484.494 323.488 483.44C295.154 426.722 287.181 337.056 305.786 283.096ZM306.137 283.046C287.582 337.006 295.756 426.672 324.391 483.34C315.063 484.494 305.585 485.146 296.007 485.346C276.549 428.026 275.847 337.858 294.402 283.898C298.364 283.798 302.275 283.497 306.137 283.046Z" fill="#231F20"/>
<path d="M323.789 279.234C320.429 280.287 317.019 281.19 313.509 281.842C294.954 335.802 307.792 424.716 342.244 480.432C350.769 478.777 359.094 476.62 367.168 474.063C324.592 420.454 305.184 333.194 323.789 279.234Z" fill="black"/>
<path d="M323.789 279.234C320.429 280.288 317.019 281.19 313.509 281.842C294.954 335.802 307.792 424.716 342.244 480.432C350.769 478.777 359.094 476.62 367.168 474.063C324.592 420.454 305.184 333.195 323.789 279.234ZM324.09 279.134C305.535 333.094 325.143 420.253 367.87 473.862C359.295 476.62 350.418 478.877 341.341 480.632C307.19 424.867 294.553 335.903 313.108 281.942C316.869 281.19 320.53 280.288 324.09 279.134Z" fill="#231F20"/>
<path d="M339.737 272.213C336.978 273.818 334.02 275.323 330.81 276.627C312.255 330.587 336.126 416.191 384.169 467.844C391.841 464.635 399.063 461.074 405.733 457.162C350.769 408.969 321.182 326.174 339.737 272.213Z" fill="black"/>
<path d="M339.737 272.213C336.978 273.818 334.02 275.323 330.81 276.627C312.255 330.587 336.126 416.191 384.169 467.844C391.841 464.635 399.063 461.074 405.733 457.163C350.769 408.969 321.182 326.174 339.737 272.213ZM339.987 272.063C321.432 326.023 351.171 408.719 406.435 456.761C399.313 460.924 391.691 464.735 383.466 468.145C335.675 416.391 311.954 330.737 330.509 276.777C333.919 275.373 337.079 273.818 339.987 272.063Z" fill="#231F20"/>
<path d="M352.174 262.786C350.117 264.842 347.861 266.747 345.403 268.553C326.848 322.513 359.997 402.952 419.473 448.236C425.441 443.873 430.957 439.209 435.922 434.295C371.13 393.524 333.618 316.746 352.174 262.786Z" fill="black"/>
<path d="M352.174 262.786C350.117 264.842 347.861 266.747 345.403 268.553C326.848 322.513 359.997 402.952 419.473 448.236C425.441 443.873 430.957 439.209 435.922 434.295C371.13 393.524 333.619 316.746 352.174 262.786ZM352.374 262.585C333.819 316.545 371.431 393.173 436.374 433.793C431.108 439.059 425.291 444.024 418.872 448.637C359.596 403.202 326.548 322.663 345.103 268.703C347.811 266.797 350.218 264.741 352.374 262.585Z" fill="#231F20"/>
<path d="M360.95 251.352C359.596 253.709 358.091 256.016 356.336 258.222C337.781 312.182 377.9 386.052 445.902 423.212C450.164 417.896 453.875 412.38 457.085 406.613C385.422 374.818 342.395 305.312 360.95 251.352Z" fill="black"/>
<path d="M360.95 251.352C359.596 253.709 358.091 256.016 356.336 258.222C337.781 312.182 377.9 386.052 445.902 423.212C450.164 417.896 453.875 412.38 457.085 406.613C385.422 374.818 342.395 305.312 360.95 251.352ZM361.05 251.101C342.495 305.061 385.623 374.417 457.386 406.011C453.976 412.129 450.014 418.047 445.45 423.663C377.549 386.352 337.53 312.333 356.085 258.373C358.041 256.116 359.646 253.659 361.05 251.101Z" fill="#231F20"/>
<path d="M364.46 243.528C364.159 244.381 363.858 245.233 363.507 246.086C344.952 300.046 389.585 366.193 463.253 393.825C464.106 391.769 464.858 389.712 465.56 387.656C391.139 362.03 345.855 297.489 364.46 243.528Z" fill="black"/>
<path d="M364.46 243.528C364.159 244.381 363.858 245.233 363.507 246.086C344.952 300.046 389.585 366.193 463.253 393.825C464.106 391.768 464.858 389.712 465.56 387.656C391.139 362.03 345.855 297.489 364.46 243.528ZM364.46 243.528C345.905 297.489 391.189 362.03 465.61 387.656C464.808 389.913 463.955 392.17 463.053 394.426C389.484 366.594 344.852 300.297 363.407 246.337C363.758 245.384 364.109 244.481 364.46 243.528Z" fill="#231F20"/>
<path d="M132.371 85.86C132.973 81.2463 133.976 76.7329 135.38 72.3198C169.632 101.958 186.181 141.626 175.098 177.382C175.65 175.376 175.75 175.025 176.051 173.119C180.013 131.596 154.487 102.76 132.371 85.86Z" fill="black"/>
<path d="M132.371 85.8602C132.973 81.2465 133.976 76.7331 135.38 72.32C169.632 101.958 186.181 141.626 175.098 177.382C175.65 175.376 175.75 175.025 176.051 173.119C180.012 131.596 154.487 102.76 132.371 85.8602ZM131.769 85.9103C163.012 109.079 180.163 141.124 176.051 173.019C175.75 174.774 175.65 175.326 175.048 177.532C186.482 141.475 169.682 101.306 134.979 71.4173C133.474 76.1313 132.371 80.9455 131.769 85.9103Z" fill="#231F20"/>
<path d="M132.471 110.333C131.769 105.468 131.519 100.654 131.569 95.94C160.003 115.247 176.703 142.278 176.151 170.762V169.759C176.151 169.508 176.101 169.208 176.101 168.957C171.688 144.083 158.198 126.029 132.471 110.333Z" fill="black"/>
<path d="M132.471 110.333C131.769 105.468 131.519 100.654 131.569 95.94C160.003 115.247 176.703 142.278 176.151 170.762V169.759C176.151 169.508 176.101 169.208 176.101 168.957C171.688 144.083 158.198 126.029 132.471 110.333ZM132.02 110.533C156.844 124.725 172.741 145.487 176.101 169.007C176.101 169.258 176.151 169.559 176.151 169.809C176.151 170.11 176.151 170.562 176.151 170.913C176.803 142.127 159.903 114.646 131.017 95.1878C130.967 100.203 131.268 105.318 132.02 110.533Z" fill="#231F20"/>
<path d="M139.392 135.708C137.386 130.743 135.781 125.829 134.527 120.914C156.443 132.198 171.186 149.098 176.151 169.057C176.301 169.458 176.452 170.06 176.602 170.461L176.853 171.113C170.685 155.768 157.646 143.481 139.392 135.708Z" fill="black"/>
<path d="M139.392 135.708C137.386 130.743 135.781 125.829 134.527 120.914C156.443 132.198 171.186 149.098 176.151 169.057C176.301 169.458 176.452 170.06 176.602 170.461L176.853 171.113C170.685 155.768 157.646 143.481 139.392 135.708ZM139.091 136.009C158.749 144.885 169.682 155.065 176.903 171.264L176.602 170.461C176.452 170.01 176.251 169.458 176.151 169.007C171.989 154.514 163.413 135.858 133.926 120.162C135.179 125.427 136.935 130.693 139.091 136.009Z" fill="#231F20"/>
<path d="M153.233 161.184C149.873 156.269 146.914 151.355 144.357 146.39C160.204 152.107 171.888 161.635 178.307 174.122L179.561 176.379C180.313 177.532 181.216 179.037 182.018 180.19C175.85 171.113 166.071 164.594 153.233 161.184Z" fill="black"/>
<path d="M153.233 161.184C149.873 156.269 146.914 151.354 144.357 146.39C160.204 152.107 171.888 161.635 178.307 174.122L179.561 176.379C180.313 177.532 181.216 179.037 182.018 180.19C175.85 171.113 166.071 164.594 153.233 161.184ZM153.133 161.535C162.661 164.293 173.543 168.305 182.169 180.391C181.367 179.187 180.313 177.582 179.561 176.379C179.16 175.677 178.608 174.724 178.207 173.972C171.738 161.234 159.803 151.505 143.604 145.738C146.363 151.054 149.522 156.319 153.133 161.535Z" fill="#231F20"/>
<path d="M174.045 185.907C171.738 183.651 169.481 181.293 167.325 178.936C165.168 176.529 163.112 174.172 161.106 171.765C169.732 173.771 178.107 176.329 186.03 185.606L189.491 189.618L193.803 194.132C189.14 189.317 182.42 186.509 174.045 185.907Z" fill="black"/>
<path d="M174.045 185.907C171.738 183.65 169.481 181.293 167.325 178.936C165.168 176.529 163.112 174.172 161.106 171.765C169.732 173.771 178.107 176.329 186.03 185.606L189.491 189.618L193.803 194.132C189.14 189.317 182.42 186.509 174.045 185.907ZM174.145 186.308C182.62 186.86 189.39 189.618 194.205 194.382L189.591 189.568C188.488 188.314 186.983 186.609 185.93 185.305C179.762 178.335 173.844 174.022 160.404 171.163C162.511 173.721 164.717 176.329 167.024 178.836C169.281 181.394 171.638 183.901 174.145 186.308Z" fill="#231F20"/>
<path d="M199.972 207.521C194.556 203.71 189.39 199.698 184.426 195.435C191.296 195.285 196.812 197.04 200.874 200.5L201.877 201.353C204.987 203.81 209.149 207.12 212.409 209.427C209.299 207.22 205.087 206.568 199.972 207.521Z" fill="black"/>
<path d="M199.972 207.521C194.556 203.71 189.39 199.698 184.426 195.435C191.296 195.285 196.812 197.04 200.874 200.501L201.877 201.353C204.987 203.81 209.149 207.12 212.409 209.427C209.299 207.22 205.087 206.569 199.972 207.521ZM200.172 207.923C205.388 206.869 209.65 207.471 212.76 209.678C209.45 207.22 205.037 203.911 201.877 201.303L200.574 200.2C196.411 196.589 190.694 194.834 183.623 194.984C188.889 199.548 194.405 203.86 200.172 207.923Z" fill="#231F20"/>
<path d="M229.359 225.123C223.391 222.115 217.574 218.855 211.907 215.395C215.969 213.99 219.279 214.041 221.686 215.545C225.899 217.952 231.515 221.162 235.828 223.418C234.324 222.666 232.167 223.218 229.359 225.123Z" fill="black"/>
<path d="M229.359 225.124C223.391 222.115 217.574 218.855 211.907 215.395C215.969 213.991 219.279 214.041 221.686 215.545C225.899 217.952 231.515 221.162 235.828 223.419C234.324 222.666 232.167 223.218 229.359 225.124ZM229.81 225.525C232.619 223.519 234.825 222.917 236.28 223.669L235.929 223.469C231.465 221.062 225.598 217.852 221.235 215.294C218.778 213.74 215.368 213.69 211.105 215.144C217.173 218.855 223.391 222.315 229.81 225.525Z" fill="#231F20"/>
<path d="M261.254 238.463C254.885 236.307 248.616 233.9 242.498 231.242C244.454 229.035 245.858 228.133 246.711 228.484L256.139 232.295L262.457 234.552C262.457 234.552 262.106 235.855 261.254 238.463Z" fill="black"/>
<path d="M261.254 238.463C254.885 236.307 248.616 233.9 242.498 231.242C244.454 229.035 245.858 228.132 246.711 228.483L256.139 232.295L262.457 234.551C262.457 234.551 262.106 235.855 261.254 238.463ZM261.805 238.814C262.658 236.106 263.009 234.702 262.909 234.702L256.088 232.295L246.159 228.283C245.256 227.882 243.802 228.835 241.746 231.141C248.365 234 255.035 236.557 261.805 238.814Z" fill="#231F20"/>
<path d="M294.502 247.239C287.983 245.985 281.514 244.481 275.045 242.726C275.095 239.867 274.694 238.313 273.992 238.112L277.201 238.965C281.063 239.867 286.178 241.071 290.089 241.873C291.895 242.174 293.349 243.98 294.502 247.239Z" fill="black"/>
<path d="M294.502 247.239C287.983 245.986 281.514 244.481 275.045 242.726C275.095 239.867 274.694 238.313 273.991 238.112L277.201 238.965C281.062 239.867 286.178 241.071 290.089 241.873C291.895 242.174 293.349 243.98 294.502 247.239ZM295.204 247.54C294.001 244.13 292.446 242.275 290.641 241.974C286.629 241.121 281.213 239.968 277.251 238.965L273.49 237.962C274.192 238.162 274.543 239.717 274.443 242.726C281.313 244.632 288.284 246.236 295.204 247.54Z" fill="#231F20"/>
<path d="M328.052 251.151C321.583 250.9 315.114 250.298 308.594 249.496C306.989 247.139 305.034 244.18 301.573 243.729C306.137 244.18 312.255 244.782 316.819 245.033C319.828 245.384 322.987 245.785 328.052 251.151Z" fill="black"/>
<path d="M328.052 251.151C321.583 250.9 315.114 250.298 308.594 249.496C306.989 247.139 305.034 244.18 301.573 243.729C306.137 244.18 312.255 244.782 316.819 245.033C319.828 245.384 322.987 245.785 328.052 251.151ZM328.905 251.402C325.344 247.891 322.636 245.534 317.32 245.033C312.456 244.682 305.936 244.18 301.072 243.628C303.68 243.98 306.037 245.935 308.093 249.596C315.063 250.499 321.984 251.101 328.905 251.402Z" fill="#231F20"/>
<path d="M360.799 249.947C354.581 250.7 348.312 251.151 341.893 251.301C336.978 247.039 331.964 244.983 326.999 245.133C329.857 244.983 333.618 244.832 336.427 244.581L339.937 244.23C346.707 243.378 353.778 245.283 360.799 249.947Z" fill="black"/>
<path d="M360.799 249.947C354.581 250.699 348.312 251.151 341.893 251.301C336.978 247.039 331.964 244.982 326.999 245.133C329.857 244.982 333.618 244.832 336.427 244.581L339.937 244.23C346.707 243.378 353.778 245.283 360.799 249.947ZM361.752 250.098C354.531 245.283 347.309 243.277 340.389 244.18L336.477 244.581C333.518 244.782 329.556 245.033 326.598 245.133C331.613 244.982 336.678 247.139 341.592 251.502C348.362 251.351 355.132 250.9 361.752 250.098Z" fill="#231F20"/>
<path d="M391.691 243.328C385.974 245.133 380.056 246.637 374.038 247.841C365.112 242.926 356.336 241.271 348.162 242.926L351.371 242.224C353.227 241.723 355.634 241.121 357.489 240.569C367.87 237.209 379.555 238.162 391.691 243.328Z" fill="black"/>
<path d="M391.691 243.328C385.974 245.133 380.056 246.637 374.038 247.841C365.112 242.926 356.336 241.272 348.162 242.926L351.371 242.224C353.227 241.723 355.634 241.121 357.489 240.569C367.87 237.209 379.555 238.162 391.691 243.328ZM392.694 243.328C385.472 240.519 373.387 235.755 357.69 240.519C355.784 241.071 353.277 241.773 351.321 242.275L347.76 243.027C355.985 241.422 364.811 243.127 373.788 248.192C380.307 246.938 386.576 245.334 392.694 243.328Z" fill="#231F20"/>
<path d="M419.122 231.342C414.358 234.1 409.293 236.658 403.827 238.914C396.254 236.507 380.458 231.492 362.755 238.664C365.914 237.26 365.914 237.26 367.319 236.457C383.467 227.882 398.511 226.427 419.122 231.342Z" fill="black"/>
<path d="M419.122 231.342C414.358 234.1 409.293 236.658 403.827 238.914C396.254 236.507 380.458 231.492 362.755 238.664C365.914 237.26 365.914 237.26 367.319 236.457C383.466 227.882 398.511 226.427 419.122 231.342ZM420.125 231.192C400.417 225.926 382.062 227.731 367.469 236.357C365.212 237.56 364.811 237.761 362.605 238.714C374.741 233.699 388.933 233.849 403.777 239.265C409.644 236.908 415.06 234.2 420.125 231.192Z" fill="#231F20"/>
<path d="M440.486 215.094C436.975 218.604 433.064 221.914 428.851 224.973C405.783 220.259 384.72 223.87 368.873 235.454C369.024 235.354 369.174 235.204 369.325 235.103L369.074 235.354C386.124 218.404 411.75 211.383 440.486 215.094Z" fill="black"/>
<path d="M440.486 215.094C436.975 218.604 433.064 221.914 428.851 224.973C405.783 220.259 384.72 223.87 368.873 235.454C369.024 235.354 369.174 235.204 369.324 235.103L369.074 235.354C386.124 218.404 411.75 211.383 440.486 215.094ZM441.439 214.843C412.252 210.982 386.275 218.103 369.024 235.404L369.274 235.153L368.773 235.505C384.67 223.97 405.833 220.46 428.951 225.425C433.565 222.115 437.677 218.604 441.439 214.843Z" fill="#231F20"/>
<path d="M455.48 195.486C453.224 199.548 450.566 203.509 447.557 207.271C414.408 204.663 385.472 214.793 368.271 236.357C367.419 237.51 367.319 237.611 366.817 238.463L366.366 239.215C382.313 210.58 415.963 195.084 455.48 195.486Z" fill="black"/>
<path d="M455.48 195.486C453.224 199.548 450.566 203.509 447.557 207.271C414.408 204.663 385.472 214.793 368.271 236.357C367.419 237.51 367.319 237.611 366.817 238.463L366.366 239.215C382.313 210.58 415.963 195.084 455.48 195.486ZM456.383 195.135C416.364 194.633 382.313 210.33 366.316 239.316L366.817 238.463C367.72 237.009 367.77 237.009 368.322 236.307C385.673 214.843 414.709 204.863 447.908 207.722C451.117 203.66 453.976 199.497 456.383 195.135Z" fill="#231F20"/>
<path d="M461.498 182.096C460.997 183.55 460.445 185.055 459.843 186.459C415.662 188.164 378.853 208.173 365.012 242.024L364.46 243.528C376.947 207.22 415.161 184.954 461.498 182.096Z" fill="black"/>
<path d="M461.498 182.096C460.997 183.55 460.445 185.055 459.843 186.459C415.662 188.164 378.853 208.173 365.012 242.024L364.46 243.528C376.947 207.22 415.161 184.954 461.498 182.096ZM462.2 182.046C415.562 184.754 376.997 207.02 364.46 243.528L365.062 241.873C379.104 208.073 416.063 188.264 460.345 186.81C460.997 185.255 461.598 183.651 462.2 182.046Z" fill="#231F20"/>
</svg>
